<svg id="Pagination_Right_Small" data-name="Pagination/Right/Small" xmlns="http://www.w3.org/2000/svg" width="61" height="31" viewBox="0 0 61 31">
  <g id="base" fill="#fff" stroke="#dee2e6" stroke-width="1">
    <path d="M0,0H57a4,4,0,0,1,4,4V27a4,4,0,0,1-4,4H0a0,0,0,0,1,0,0V0A0,0,0,0,1,0,0Z" stroke="none"/>
    <path d="M1,.5H57A3.5,3.5,0,0,1,60.5,4V27A3.5,3.5,0,0,1,57,30.5H1A.5.5,0,0,1,.5,30V1A.5.5,0,0,1,1,.5Z" fill="none"/>
  </g>
  <text id="Next" transform="translate(16 20)" fill="#007bff" font-size="14" font-family="HelveticaNeue, Helvetica Neue"><tspan x="0" y="0">Next</tspan></text>
</svg>
