<svg id="Dropdown_Button_Left_Default" data-name="Dropdown/Button/Left/Default" xmlns="http://www.w3.org/2000/svg" width="125" height="38" viewBox="0 0 125 38">
  <g id="InputGroup_Base_Outline_Left" data-name="InputGroup/Base/Outline/Left" fill="#fff" stroke="#6c757d" stroke-width="1">
    <path d="M5,0H125a0,0,0,0,1,0,0V38a0,0,0,0,1,0,0H5a5,5,0,0,1-5-5V5A5,5,0,0,1,5,0Z" stroke="none"/>
    <path d="M5,.5H124a.5.5,0,0,1,.5.5V37a.5.5,0,0,1-.5.5H5A4.5,4.5,0,0,1,.5,33V5A4.5,4.5,0,0,1,5,.5Z" fill="none"/>
  </g>
  <g id="dropdown" transform="translate(-738 -791)">
    <g id="icon_dropdown_arrow_default" data-name="icon/dropdown arrow/default" transform="translate(835 803)">
      <rect id="Dropdown_Button_Ω_Carot_Down_background" data-name="Dropdown/Button/Ω/Carot/Down background" width="14" height="14" fill="none"/>
      <path id="icon_dropdown_arrow" data-name="icon/dropdown arrow" d="M.023-6h12L6,0Z" transform="translate(0.977 10)" fill="#343a40"/>
    </g>
    <text id="Dropdown-2" data-name="Dropdown" transform="translate(752 816)" fill="#6c757d" font-size="16" font-family="HelveticaNeue, Helvetica Neue"><tspan x="0" y="0">Dropdown</tspan></text>
  </g>
</svg>
