<svg id="InputGroup_Right_Placeholder_Small" data-name="InputGroup/Right/Placeholder/Small" xmlns="http://www.w3.org/2000/svg" width="70" height="31" viewBox="0 0 70 31">
  <g id="InputGroup_Right_Placeholder_Small-2" data-name="InputGroup/Right/Placeholder/Small" fill="#fff" stroke="#ced4da" stroke-width="1">
    <path d="M0,0H66a4,4,0,0,1,4,4V27a4,4,0,0,1-4,4H0a0,0,0,0,1,0,0V0A0,0,0,0,1,0,0Z" stroke="none"/>
    <path d="M1,.5H66A3.5,3.5,0,0,1,69.5,4V27A3.5,3.5,0,0,1,66,30.5H1A.5.5,0,0,1,.5,30V1A.5.5,0,0,1,1,.5Z" fill="none"/>
  </g>
</svg>
