<svg id="Dropdown_Button_Right_Small" data-name="Dropdown/Button/Right/Small" xmlns="http://www.w3.org/2000/svg" width="131" height="31" viewBox="0 0 131 31">
  <g id="base" fill="#fff" stroke="#6c757d" stroke-width="1">
    <path d="M0,0H126a5,5,0,0,1,5,5V26a5,5,0,0,1-5,5H0a0,0,0,0,1,0,0V0A0,0,0,0,1,0,0Z" stroke="none"/>
    <path d="M1,.5H126A4.5,4.5,0,0,1,130.5,5V26a4.5,4.5,0,0,1-4.5,4.5H1A.5.5,0,0,1,.5,30V1A.5.5,0,0,1,1,.5Z" fill="none"/>
  </g>
  <g id="icon_dropdown_arrow_small" data-name="icon/dropdown arrow/small" transform="translate(105 11)">
    <rect id="Dropdown_Button_Ω_Carot_Down_background" data-name="Dropdown/Button/Ω/Carot/Down background" width="10" height="10" fill="none"/>
    <path id="Mask" d="M0,0H10L5,5Z" transform="translate(0 2.5)" fill="#6c757d"/>
  </g>
  <text id="Small_Button" data-name="Small Button" transform="translate(16 20)" fill="#6c757d" font-size="14" font-family="HelveticaNeue, Helvetica Neue"><tspan x="0" y="0">Small Button</tspan></text>
</svg>
