<svg id="InputGroup_Base_Helper_Left_Small" data-name="InputGroup/Base/Helper/Left/Small" xmlns="http://www.w3.org/2000/svg" width="113" height="31" viewBox="0 0 113 31">
  <g id="base" fill="#fff" stroke="#6c757d" stroke-width="1">
    <path d="M5,0H113a0,0,0,0,1,0,0V31a0,0,0,0,1,0,0H5a5,5,0,0,1-5-5V5A5,5,0,0,1,5,0Z" stroke="none"/>
    <path d="M5,.5H112a.5.5,0,0,1,.5.5V30a.5.5,0,0,1-.5.5H5A4.5,4.5,0,0,1,.5,26V5A4.5,4.5,0,0,1,5,.5Z" fill="none"/>
  </g>
  <text id="Small_Button" data-name="Small Button" transform="translate(16 20)" fill="#6c757d" font-size="14" font-family="HelveticaNeue, Helvetica Neue"><tspan x="0" y="0">Small Button</tspan></text>
</svg>
