<svg id="InputGroup_Left_Button_Addon" data-name="InputGroup/Left/Button Addon" xmlns="http://www.w3.org/2000/svg" width="381" height="38" viewBox="0 0 381 38">
  <g id="InputGroup_Base_Outline_Left_Medium" data-name="InputGroup/Base/Outline/Left/Medium">
    <g id="InputGroup_Base_Outline_Left" data-name="InputGroup/Base/Outline/Left" fill="#fff" stroke="#6c757d" stroke-width="1">
      <path d="M4,0H76a0,0,0,0,1,0,0V38a0,0,0,0,1,0,0H4a4,4,0,0,1-4-4V4A4,4,0,0,1,4,0Z" stroke="none"/>
      <path d="M4,.5H75a.5.5,0,0,1,.5.5V37a.5.5,0,0,1-.5.5H4A3.5,3.5,0,0,1,.5,34V4A3.5,3.5,0,0,1,4,.5Z" fill="none"/>
    </g>
    <text id="Button" transform="translate(14 25)" fill="#6c757d" font-size="16" font-family="HelveticaNeue, Helvetica Neue"><tspan x="0" y="0">Button</tspan></text>
  </g>
  <g id="InputGroup_Base_Text_Right_Medium" data-name="InputGroup/Base/Text/Right/Medium" transform="translate(75)">
    <g id="InputGroup_Right_Placeholder" data-name="InputGroup/Right/Placeholder">
      <g id="InputGroup_Right_Placeholder-2" data-name="InputGroup/Right/Placeholder" fill="#fff" stroke="#ced4da" stroke-width="1">
        <path d="M0,0H302a4,4,0,0,1,4,4V34a4,4,0,0,1-4,4H0a0,0,0,0,1,0,0V0A0,0,0,0,1,0,0Z" stroke="none"/>
        <path d="M1,.5H302A3.5,3.5,0,0,1,305.5,4V34a3.5,3.5,0,0,1-3.5,3.5H1A.5.5,0,0,1,.5,37V1A.5.5,0,0,1,1,.5Z" fill="none"/>
      </g>
    </g>
  </g>
</svg>
