<svg id="Dropdown_Split_Right_Large" data-name="Dropdown/Split/Right/Large" xmlns="http://www.w3.org/2000/svg" width="38" height="48" viewBox="0 0 38 48">
  <g id="Style" fill="none" stroke="#6c757d" stroke-width="1">
    <path d="M0,0H34a4,4,0,0,1,4,4V44a4,4,0,0,1-4,4H0a0,0,0,0,1,0,0V0A0,0,0,0,1,0,0Z" stroke="none"/>
    <path d="M1,.5H34A3.5,3.5,0,0,1,37.5,4V44A3.5,3.5,0,0,1,34,47.5H1A.5.5,0,0,1,.5,47V1A.5.5,0,0,1,1,.5Z" fill="none"/>
  </g>
  <g id="icon_dropdown_arrow_large" data-name="icon/dropdown arrow/large" transform="translate(10.5 16)">
    <rect id="Dropdown_Button_Ω_Carot_Down_background" data-name="Dropdown/Button/Ω/Carot/Down background" width="16" height="16" fill="none"/>
    <path id="Mask" d="M0,0H16L8,8Z" transform="translate(0 4)" fill="#6c757d"/>
  </g>
</svg>
