<svg id="Layout_Media_Object_Left-aligned" data-name="Layout/Media Object/Left-aligned" xmlns="http://www.w3.org/2000/svg" width="960" height="104" viewBox="0 0 960 104">
  <text id="Cras_sit_amet_nibh_libero_in_gravida_nulla._Nulla_vel_metus_scelerisque_ante_sollicitudin._Cras_purus_odio_vestibulum_in_vulputate_at_tempus_viverra_turpis._Fusce_condimentum_nunc_ac_nisi_vulputate_fringilla._Donec_lacinia_congue_felis_in_faucibus." data-name="Cras sit amet nibh libero, in gravida nulla. Nulla vel metus scelerisque ante sollicitudin. Cras purus odio, vestibulum in vulputate at, tempus viverra turpis. Fusce condimentum nunc ac nisi vulputate fringilla. Donec lacinia congue felis in faucibus." transform="translate(80 35)" font-size="16" font-family="HelveticaNeue, Helvetica Neue"><tspan x="0" y="15">Cras sit amet nibh libero, in gravida nulla. Nulla vel metus scelerisque ante sollicitudin. Cras purus odio, vestibulum in </tspan><tspan x="0" y="39">vulputate at, tempus viverra turpis. Fusce condimentum nunc ac nisi vulputate fringilla. Donec lacinia congue felis in </tspan><tspan x="0" y="63">faucibus.</tspan></text>
  <text id="Top-aligned_media" data-name="Top-aligned media" transform="translate(80 20)" font-size="20" font-family="HelveticaNeue-Medium, Helvetica Neue" font-weight="500"><tspan x="0" y="0">Top-aligned media</tspan></text>
  <g id="image" transform="translate(-75 -327)">
    <rect id="image-2" data-name="image" width="64" height="64" transform="translate(75 327)" fill="#777"/>
    <g id="icon_image" data-name="icon/image" transform="translate(94.917 349)">
      <path id="Path_580" data-name="Path 580" d="M22.752,2.5H3.252A1.566,1.566,0,0,0,1.627,4V19a1.566,1.566,0,0,0,1.625,1.5h19.5A1.566,1.566,0,0,0,24.377,19V4A1.566,1.566,0,0,0,22.752,2.5ZM3.252,1A3.133,3.133,0,0,0,0,4V19a3.133,3.133,0,0,0,3.25,3h19.5A3.133,3.133,0,0,0,26,19V4a3.133,3.133,0,0,0-3.25-3H3.252Z" transform="translate(-0.002 -1)" fill="#f8f9fa" fill-rule="evenodd"/>
      <path id="Path_581" data-name="Path 581" d="M17.834,7.735a.927.927,0,0,1,1.007-.15l6.591,3.136V17.97H1V14.748l4.617-3.792a.928.928,0,0,1,1.1-.1l4.642,2.856,6.474-5.976Z" transform="translate(-0.217 1.89)" fill="#f8f9fa"/>
      <path id="Path_582" data-name="Path 582" d="M5.44,8.5A2.349,2.349,0,0,0,7.877,6.25,2.349,2.349,0,0,0,5.44,4,2.349,2.349,0,0,0,3,6.25,2.349,2.349,0,0,0,5.44,8.5Z" transform="translate(1.873 0.5)" fill="#f8f9fa" fill-rule="evenodd"/>
    </g>
  </g>
</svg>
