<svg id="Card_Navigation" data-name="Card/Navigation" xmlns="http://www.w3.org/2000/svg" width="530" height="291" viewBox="0 0 530 291">
  <g id="Content">
    <g id="card_background_simple" data-name="card background/simple" fill="#fff" stroke="#e0e0e0" stroke-width="1">
      <rect width="529" height="291" rx="5" stroke="none"/>
      <rect x="0.5" y="0.5" width="528" height="290" rx="4.5" fill="none"/>
    </g>
    <g id="Button_Default_Primary" data-name="Button/Default/Primary" transform="translate(225 230)">
      <rect id="Primary_007BFF" data-name="Primary / #007BFF" width="80" height="38" rx="5" fill="#007bff"/>
      <text id="Button" transform="translate(16 24)" fill="#fff" font-size="16" font-family="HelveticaNeue, Helvetica Neue"><tspan x="0" y="0">Button</tspan></text>
    </g>
    <g id="Button_Default_Primary-2" data-name="Button/Default/Primary" transform="translate(225 172)">
      <rect id="Primary_007BFF-2" data-name="Primary / #007BFF" width="80" height="38" rx="5" fill="#007bff"/>
      <text id="Button-2" data-name="Button" transform="translate(16 24)" fill="#fff" font-size="16" font-family="HelveticaNeue, Helvetica Neue"><tspan x="0" y="0">Button</tspan></text>
    </g>
    <text id="With_supporting_text_below_as_a_natural_lead-in_to_additional_content." data-name="With supporting text below as a natural lead-in to additional content." transform="translate(22 109)" font-size="16" font-family="HelveticaNeue, Helvetica Neue"><tspan x="29.784" y="15">With supporting text below as a natural lead-in to additional </tspan><tspan x="213.656" y="39">content.</tspan></text>
    <text id="Special_title_treatment" data-name="Special title treatment" transform="translate(265 88)" font-size="20" font-family="HelveticaNeue-Medium, Helvetica Neue" font-weight="500"><tspan x="-101.14" y="0">Special title treatment</tspan></text>
  </g>
  <path id="line" d="M5410,6364.916h530" transform="translate(-5410 -6311.416)" fill="none" stroke="#e0e0e0" stroke-width="1"/>
  <g id="header">
    <path id="header_base" data-name="header base" d="M5,0H525a5,5,0,0,1,5,5V53a0,0,0,0,1,0,0H0a0,0,0,0,1,0,0V5A5,5,0,0,1,5,0Z" fill="rgba(0,0,0,0.03)"/>
    <g id="Button_Default_Link" data-name="Button/Default/Link" transform="translate(102 15)">
      <rect id="transparent" width="62" height="38" rx="4" fill="none"/>
      <text id="Link" transform="translate(16 24)" fill="#007aff" font-size="16" font-family="HelveticaNeue, Helvetica Neue"><tspan x="0" y="0">Link</tspan></text>
    </g>
    <g id="Button_Default_Link-2" data-name="Button/Default/Link" transform="translate(174 15)">
      <rect id="transparent-2" data-name="transparent" width="85" height="38" rx="4" fill="none"/>
      <text id="Disable" transform="translate(16 24)" fill="#b0b6ba" font-size="16" font-family="HelveticaNeue, Helvetica Neue"><tspan x="0" y="0">Disable</tspan></text>
    </g>
    <g id="active" transform="translate(-1522.5 -1074.5)">
      <g id="active-2" data-name="active" transform="translate(1536.5 1085.5)">
        <g id="active-3" data-name="active" transform="translate(0 0)" fill="none" stroke="#e0e0e0" stroke-miterlimit="10" stroke-width="1">
          <path d="M4,0H73a4,4,0,0,1,4,4V43a0,0,0,0,1,0,0H0a0,0,0,0,1,0,0V4A4,4,0,0,1,4,0Z" stroke="none"/>
          <path d="M4,.5H73A3.5,3.5,0,0,1,76.5,4V42a.5.5,0,0,1-.5.5H1A.5.5,0,0,1,.5,42V4A3.5,3.5,0,0,1,4,.5Z" fill="none"/>
        </g>
        <path id="active_base" data-name="active base" d="M3,0H72a3,3,0,0,1,3,3V42a0,0,0,0,1,0,0H0a0,0,0,0,1,0,0V3A3,3,0,0,1,3,0Z" transform="translate(1 1.002)" fill="#fff"/>
      </g>
      <text id="Active-4" data-name="Active" transform="translate(1553.5 1113.5)" font-size="16" font-family="HelveticaNeue, Helvetica Neue"><tspan x="0" y="0">Active</tspan></text>
    </g>
  </g>
</svg>
