<svg xmlns="http://www.w3.org/2000/svg" width="401" height="151" viewBox="0 0 401 151">
  <g id="List_Group_With_Radios" data-name="List Group/With Radios" transform="translate(0.5 0.5)">
    <g id="List_Group_Position_Standard_Radio_Top" data-name="List Group/Position Standard/Radio/Top" transform="translate(0 100)">
      <path id="State" d="M0,0H400a0,0,0,0,1,0,0V46a4,4,0,0,1-4,4H4a4,4,0,0,1-4-4V0A0,0,0,0,1,0,0Z" fill="#fff" stroke="#ced4da" stroke-width="1"/>
      <text id="Label" transform="translate(46 31)" fill="#343a40" font-size="16" font-family="HelveticaNeue, Helvetica Neue"><tspan x="0" y="0">List Item</tspan></text>
      <g id="Radio" transform="translate(20 17)">
        <g id="Oval" fill="#fff" stroke="#b6b6b6" stroke-miterlimit="10" stroke-width="1">
          <circle cx="8" cy="8" r="8" stroke="none"/>
          <circle cx="8" cy="8" r="7.5" fill="none"/>
        </g>
      </g>
    </g>
    <g id="List_Group_Position_Standard_Radio_Top-2" data-name="List Group/Position Standard/Radio/Top" transform="translate(0 50)">
      <rect id="State-2" data-name="State" width="400" height="50" fill="#fff" stroke="#ced4da" stroke-width="1"/>
      <text id="Label-2" data-name="Label" transform="translate(46 31)" fill="#343a40" font-size="16" font-family="HelveticaNeue, Helvetica Neue"><tspan x="0" y="0">List Item</tspan></text>
      <g id="Radio-2" data-name="Radio" transform="translate(20 17)">
        <g id="Oval-2" data-name="Oval" fill="#fff" stroke="#b6b6b6" stroke-miterlimit="10" stroke-width="1">
          <circle cx="8" cy="8" r="8" stroke="none"/>
          <circle cx="8" cy="8" r="7.5" fill="none"/>
        </g>
      </g>
    </g>
    <g id="List_Group_Position_Standard_Radio_Top-3" data-name="List Group/Position Standard/Radio/Top">
      <path id="State-3" data-name="State" d="M4,0H396a4,4,0,0,1,4,4V50a0,0,0,0,1,0,0H0a0,0,0,0,1,0,0V4A4,4,0,0,1,4,0Z" fill="#fff" stroke="#ced4da" stroke-width="1"/>
      <text id="Label-3" data-name="Label" transform="translate(46 31)" fill="#343a40" font-size="16" font-family="HelveticaNeue, Helvetica Neue"><tspan x="0" y="0">List Item</tspan></text>
      <g id="Radio-3" data-name="Radio" transform="translate(20 17)">
        <g id="Oval-3" data-name="Oval" fill="#fff" stroke="#b6b6b6" stroke-miterlimit="10" stroke-width="1">
          <circle cx="8" cy="8" r="8" stroke="none"/>
          <circle cx="8" cy="8" r="7.5" fill="none"/>
        </g>
      </g>
    </g>
  </g>
</svg>
