<svg id="Pagination_Right_Large" data-name="Pagination/Right/Large" xmlns="http://www.w3.org/2000/svg" width="82" height="48" viewBox="0 0 82 48">
  <g id="base" fill="#fff">
    <path d="M 79.37180328369141 47.5 L 0.5 47.5 L 0.5 0.5 L 79.37180328369141 0.5 C 79.87168884277344 0.5 80.38774108886719 0.9363333582878113 80.78763580322266 1.697100043296814 C 81.24700927734375 2.571033239364624 81.5 3.744033336639404 81.5 5 L 81.5 43 C 81.5 44.25596618652344 81.24700927734375 45.4289665222168 80.78763580322266 46.30289840698242 C 80.38774108886719 47.06366729736328 79.87168884277344 47.5 79.37180328369141 47.5 Z" stroke="none"/>
    <path d="M 1 1 L 1 47 L 79.37178802490234 47 C 80.01999664306641 47 81 45.40463256835938 81 43 L 81 5 C 81 2.595367431640625 80.01999664306641 1 79.37178802490234 1 L 1 1 M 0 0 L 79.37178802490234 0 C 80.82331848144531 0 82 2.238578796386719 82 5 L 82 43 C 82 45.76142120361328 80.82331848144531 48 79.37178802490234 48 L 0 48 L 0 0 Z" stroke="none" fill="#dee2e6"/>
  </g>
  <text id="Next" transform="translate(20 31)" fill="#007bff" font-size="20" font-family="HelveticaNeue, Helvetica Neue"><tspan x="0" y="0">Next</tspan></text>
</svg>
