<svg id="Pagination_Left_Large" data-name="Pagination/Left/Large" xmlns="http://www.w3.org/2000/svg" width="117" height="48" viewBox="0 0 117 48">
  <g id="base" fill="#fff" stroke="#dee2e6" stroke-width="1">
    <path d="M4,0H117a0,0,0,0,1,0,0V48a0,0,0,0,1,0,0H4a4,4,0,0,1-4-4V4A4,4,0,0,1,4,0Z" stroke="none"/>
    <path d="M4,.5H116a.5.5,0,0,1,.5.5V47a.5.5,0,0,1-.5.5H4A3.5,3.5,0,0,1,.5,44V4A3.5,3.5,0,0,1,4,.5Z" fill="none"/>
  </g>
  <text id="Previous" transform="translate(20 31)" fill="#007bff" font-size="20" font-family="HelveticaNeue, Helvetica Neue"><tspan x="0" y="0">Previous</tspan></text>
</svg>
