<svg id="InputGroup_Base_Helper_Left_Large" data-name="InputGroup/Base/Helper/Left/Large" xmlns="http://www.w3.org/2000/svg" width="156" height="48" viewBox="0 0 156 48">
  <g id="base" fill="#fff" stroke="#6c757d" stroke-width="1">
    <path d="M5,0H156a0,0,0,0,1,0,0V48a0,0,0,0,1,0,0H5a5,5,0,0,1-5-5V5A5,5,0,0,1,5,0Z" stroke="none"/>
    <path d="M5,.5H155a.5.5,0,0,1,.5.5V47a.5.5,0,0,1-.5.5H5A4.5,4.5,0,0,1,.5,43V5A4.5,4.5,0,0,1,5,.5Z" fill="none"/>
  </g>
  <text id="Large_Button" data-name="Large Button" transform="translate(20 31)" fill="#6c757d" font-size="20" font-family="HelveticaNeue, Helvetica Neue"><tspan x="0" y="0">Large Button</tspan></text>
</svg>
