<svg id="Dropdown_Button_Split_Button_Warning" data-name="Dropdown/Button/Split Button/Warning" xmlns="http://www.w3.org/2000/svg" width="115" height="38" viewBox="0 0 115 38">
  <g id="Dropdown_Selector" data-name="Dropdown Selector" transform="translate(85.453)">
    <path id="Style" d="M0,0H26a4,4,0,0,1,4,4V34a4,4,0,0,1-4,4H0a0,0,0,0,1,0,0V0A0,0,0,0,1,0,0Z" transform="translate(-0.453)" fill="#ffc107"/>
    <path id="Mask" d="M0,0H12L6,6Z" transform="translate(9 16)" fill="#343a40"/>
  </g>
  <g id="Button">
    <path id="Style-2" data-name="Style" d="M4,0H85a0,0,0,0,1,0,0V38a0,0,0,0,1,0,0H4a4,4,0,0,1-4-4V4A4,4,0,0,1,4,0Z" fill="#ffc107"/>
    <text id="Label" transform="translate(13 24)" fill="#343a40" font-size="16" font-family="HelveticaNeue, Helvetica Neue"><tspan x="0" y="0">Warning</tspan></text>
  </g>
</svg>
