<svg id="InputGroup_Base_Text_Left_Small" data-name="InputGroup/Base/Text/Left/Small" xmlns="http://www.w3.org/2000/svg" width="113" height="31" viewBox="0 0 113 31">
  <g id="InputGroup_Left_Placeholder_Small" data-name="InputGroup/Left/Placeholder/Small">
    <g id="InputGroup_Left_Placeholder_Small-2" data-name="InputGroup/Left/Placeholder/Small" fill="#fff" stroke="#ced4da" stroke-width="1">
      <path d="M4,0H113a0,0,0,0,1,0,0V31a0,0,0,0,1,0,0H4a4,4,0,0,1-4-4V4A4,4,0,0,1,4,0Z" stroke="none"/>
      <path d="M4,.5H112a.5.5,0,0,1,.5.5V30a.5.5,0,0,1-.5.5H4A3.5,3.5,0,0,1,.5,27V4A3.5,3.5,0,0,1,4,.5Z" fill="none"/>
    </g>
  </g>
  <text id="Small_Button" data-name="Small Button" transform="translate(16 20)" fill="#868e96" font-size="14" font-family="HelveticaNeue, Helvetica Neue"><tspan x="0" y="0">Small Button</tspan></text>
</svg>
