<svg id="Grid_Even_12_Column_No_Gutter" data-name="Grid/Even/12 Column/No Gutter" xmlns="http://www.w3.org/2000/svg" width="1140" height="60" viewBox="0 0 1140 60">
  <g id="Grid_Ω_15px_Gutter" data-name="Grid/Ω/15px Gutter">
    <rect id="base" width="95" height="60" fill="rgba(255,191,191,0.1)"/>
    <g id="Grid_Ω_Label" data-name="Grid/Ω/Label">
      <path id="width" d="M0-13H95v-4H0Z" transform="translate(0 30)" fill="#ffbebe"/>
      <g id="Right_Marker" data-name="Right Marker" transform="translate(91)">
        <path id="Path_3207" data-name="Path 3207" d="M281,0h4V-30h-4Z" transform="translate(-281 30)" fill="#ffbebe"/>
        <path id="Path_3209" data-name="Path 3209" d="M284,0h1V-30h-1Z" transform="translate(-281 30)" fill="#f99"/>
      </g>
      <g id="Left_Marker" data-name="Left Marker">
        <path id="Path_3217" data-name="Path 3217" d="M285,0h-4V-30h4Z" transform="translate(-281 30)" fill="#ffbebe"/>
        <path id="Path_3216" data-name="Path 3216" d="M285,0h-1V-30h1Z" transform="translate(-284 30)" fill="#ff7373"/>
      </g>
      <path id="col-1" d="M121-6h44V-24H121Z" transform="translate(-95.394 30)" fill="#ffbebe"/>
      <text id="col-1-2" data-name="col-1" transform="translate(13 6)" fill="#fff" font-size="12" font-family="HelveticaNeue-Bold, Helvetica Neue" font-weight="700"><tspan x="20.397" y="12">col-1</tspan></text>
    </g>
  </g>
  <g id="Grid_Ω_15px_Gutter-2" data-name="Grid/Ω/15px Gutter" transform="translate(380)">
    <rect id="base-2" data-name="base" width="95" height="60" fill="rgba(255,191,191,0.1)"/>
    <g id="Grid_Ω_Label-2" data-name="Grid/Ω/Label">
      <path id="width-2" data-name="width" d="M0-13H95v-4H0Z" transform="translate(0 30)" fill="#ffbebe"/>
      <g id="Right_Marker-2" data-name="Right Marker" transform="translate(91)">
        <path id="Path_3207-2" data-name="Path 3207" d="M281,0h4V-30h-4Z" transform="translate(-281 30)" fill="#ffbebe"/>
        <path id="Path_3209-2" data-name="Path 3209" d="M284,0h1V-30h-1Z" transform="translate(-281 30)" fill="#f99"/>
      </g>
      <g id="Left_Marker-2" data-name="Left Marker">
        <path id="Path_3217-2" data-name="Path 3217" d="M285,0h-4V-30h4Z" transform="translate(-281 30)" fill="#ffbebe"/>
        <path id="Path_3216-2" data-name="Path 3216" d="M285,0h-1V-30h1Z" transform="translate(-284 30)" fill="#ff7373"/>
      </g>
      <path id="col-1-3" data-name="col-1" d="M121-6h44V-24H121Z" transform="translate(-95.394 30)" fill="#ffbebe"/>
      <text id="col-1-4" data-name="col-1" transform="translate(13 6)" fill="#fff" font-size="12" font-family="HelveticaNeue-Bold, Helvetica Neue" font-weight="700"><tspan x="20.397" y="12">col-1</tspan></text>
    </g>
  </g>
  <g id="Grid_Ω_15px_Gutter-3" data-name="Grid/Ω/15px Gutter" transform="translate(760)">
    <rect id="base-3" data-name="base" width="95" height="60" fill="rgba(255,191,191,0.1)"/>
    <g id="Grid_Ω_Label-3" data-name="Grid/Ω/Label">
      <path id="width-3" data-name="width" d="M0-13H95v-4H0Z" transform="translate(0 30)" fill="#ffbebe"/>
      <g id="Right_Marker-3" data-name="Right Marker" transform="translate(91)">
        <path id="Path_3207-3" data-name="Path 3207" d="M281,0h4V-30h-4Z" transform="translate(-281 30)" fill="#ffbebe"/>
        <path id="Path_3209-3" data-name="Path 3209" d="M284,0h1V-30h-1Z" transform="translate(-281 30)" fill="#f99"/>
      </g>
      <g id="Left_Marker-3" data-name="Left Marker">
        <path id="Path_3217-3" data-name="Path 3217" d="M285,0h-4V-30h4Z" transform="translate(-281 30)" fill="#ffbebe"/>
        <path id="Path_3216-3" data-name="Path 3216" d="M285,0h-1V-30h1Z" transform="translate(-284 30)" fill="#ff7373"/>
      </g>
      <path id="col-1-5" data-name="col-1" d="M121-6h44V-24H121Z" transform="translate(-95.394 30)" fill="#ffbebe"/>
      <text id="col-1-6" data-name="col-1" transform="translate(13 6)" fill="#fff" font-size="12" font-family="HelveticaNeue-Bold, Helvetica Neue" font-weight="700"><tspan x="20.397" y="12">col-1</tspan></text>
    </g>
  </g>
  <g id="Grid_Ω_15px_Gutter-4" data-name="Grid/Ω/15px Gutter" transform="translate(190)">
    <rect id="base-4" data-name="base" width="95" height="60" fill="rgba(255,191,191,0.1)"/>
    <g id="Grid_Ω_Label-4" data-name="Grid/Ω/Label">
      <path id="width-4" data-name="width" d="M0-13H95v-4H0Z" transform="translate(0 30)" fill="#ffbebe"/>
      <g id="Right_Marker-4" data-name="Right Marker" transform="translate(91)">
        <path id="Path_3207-4" data-name="Path 3207" d="M281,0h4V-30h-4Z" transform="translate(-281 30)" fill="#ffbebe"/>
        <path id="Path_3209-4" data-name="Path 3209" d="M284,0h1V-30h-1Z" transform="translate(-281 30)" fill="#f99"/>
      </g>
      <g id="Left_Marker-4" data-name="Left Marker">
        <path id="Path_3217-4" data-name="Path 3217" d="M285,0h-4V-30h4Z" transform="translate(-281 30)" fill="#ffbebe"/>
        <path id="Path_3216-4" data-name="Path 3216" d="M285,0h-1V-30h1Z" transform="translate(-284 30)" fill="#ff7373"/>
      </g>
      <path id="col-1-7" data-name="col-1" d="M121-6h44V-24H121Z" transform="translate(-95.394 30)" fill="#ffbebe"/>
      <text id="col-1-8" data-name="col-1" transform="translate(13 6)" fill="#fff" font-size="12" font-family="HelveticaNeue-Bold, Helvetica Neue" font-weight="700"><tspan x="20.397" y="12">col-1</tspan></text>
    </g>
  </g>
  <g id="Grid_Ω_15px_Gutter-5" data-name="Grid/Ω/15px Gutter" transform="translate(570)">
    <rect id="base-5" data-name="base" width="95" height="60" fill="rgba(255,191,191,0.1)"/>
    <g id="Grid_Ω_Label-5" data-name="Grid/Ω/Label">
      <path id="width-5" data-name="width" d="M0-13H95v-4H0Z" transform="translate(0 30)" fill="#ffbebe"/>
      <g id="Right_Marker-5" data-name="Right Marker" transform="translate(91)">
        <path id="Path_3207-5" data-name="Path 3207" d="M281,0h4V-30h-4Z" transform="translate(-281 30)" fill="#ffbebe"/>
        <path id="Path_3209-5" data-name="Path 3209" d="M284,0h1V-30h-1Z" transform="translate(-281 30)" fill="#f99"/>
      </g>
      <g id="Left_Marker-5" data-name="Left Marker">
        <path id="Path_3217-5" data-name="Path 3217" d="M285,0h-4V-30h4Z" transform="translate(-281 30)" fill="#ffbebe"/>
        <path id="Path_3216-5" data-name="Path 3216" d="M285,0h-1V-30h1Z" transform="translate(-284 30)" fill="#ff7373"/>
      </g>
      <path id="col-1-9" data-name="col-1" d="M121-6h44V-24H121Z" transform="translate(-95.394 30)" fill="#ffbebe"/>
      <text id="col-1-10" data-name="col-1" transform="translate(13 6)" fill="#fff" font-size="12" font-family="HelveticaNeue-Bold, Helvetica Neue" font-weight="700"><tspan x="20.397" y="12">col-1</tspan></text>
    </g>
  </g>
  <g id="Grid_Ω_15px_Gutter-6" data-name="Grid/Ω/15px Gutter" transform="translate(950)">
    <rect id="base-6" data-name="base" width="95" height="60" fill="rgba(255,191,191,0.1)"/>
    <g id="Grid_Ω_Label-6" data-name="Grid/Ω/Label">
      <path id="width-6" data-name="width" d="M0-13H95v-4H0Z" transform="translate(0 30)" fill="#ffbebe"/>
      <g id="Right_Marker-6" data-name="Right Marker" transform="translate(91)">
        <path id="Path_3207-6" data-name="Path 3207" d="M281,0h4V-30h-4Z" transform="translate(-281 30)" fill="#ffbebe"/>
        <path id="Path_3209-6" data-name="Path 3209" d="M284,0h1V-30h-1Z" transform="translate(-281 30)" fill="#f99"/>
      </g>
      <g id="Left_Marker-6" data-name="Left Marker">
        <path id="Path_3217-6" data-name="Path 3217" d="M285,0h-4V-30h4Z" transform="translate(-281 30)" fill="#ffbebe"/>
        <path id="Path_3216-6" data-name="Path 3216" d="M285,0h-1V-30h1Z" transform="translate(-284 30)" fill="#ff7373"/>
      </g>
      <path id="col-1-11" data-name="col-1" d="M121-6h44V-24H121Z" transform="translate(-95.394 30)" fill="#ffbebe"/>
      <text id="col-1-12" data-name="col-1" transform="translate(13 6)" fill="#fff" font-size="12" font-family="HelveticaNeue-Bold, Helvetica Neue" font-weight="700"><tspan x="20.397" y="12">col-1</tspan></text>
    </g>
  </g>
  <g id="Grid_Ω_15px_Gutter-7" data-name="Grid/Ω/15px Gutter" transform="translate(95)">
    <rect id="base-7" data-name="base" width="95" height="60" fill="rgba(255,191,191,0.25)"/>
    <g id="Grid_Ω_Label-7" data-name="Grid/Ω/Label">
      <path id="width-7" data-name="width" d="M0-13H95v-4H0Z" transform="translate(0 30)" fill="#ffbebe"/>
      <g id="Right_Marker-7" data-name="Right Marker" transform="translate(91)">
        <path id="Path_3207-7" data-name="Path 3207" d="M281,0h4V-30h-4Z" transform="translate(-281 30)" fill="#ffbebe"/>
        <path id="Path_3209-7" data-name="Path 3209" d="M284,0h1V-30h-1Z" transform="translate(-281 30)" fill="#f99"/>
      </g>
      <g id="Left_Marker-7" data-name="Left Marker">
        <path id="Path_3217-7" data-name="Path 3217" d="M285,0h-4V-30h4Z" transform="translate(-281 30)" fill="#ffbebe"/>
        <path id="Path_3216-7" data-name="Path 3216" d="M285,0h-1V-30h1Z" transform="translate(-284 30)" fill="#ff7373"/>
      </g>
      <path id="col-1-13" data-name="col-1" d="M121-6h44V-24H121Z" transform="translate(-95.394 30)" fill="#ffbebe"/>
      <text id="col-1-14" data-name="col-1" transform="translate(13.508 6)" fill="#fff" font-size="12" font-family="HelveticaNeue-Bold, Helvetica Neue" font-weight="700"><tspan x="19.606" y="12">col-1</tspan></text>
    </g>
  </g>
  <g id="Grid_Ω_15px_Gutter-8" data-name="Grid/Ω/15px Gutter" transform="translate(475)">
    <rect id="base-8" data-name="base" width="95" height="60" fill="rgba(255,191,191,0.25)"/>
    <g id="Grid_Ω_Label-8" data-name="Grid/Ω/Label">
      <path id="width-8" data-name="width" d="M0-13H95v-4H0Z" transform="translate(0 30)" fill="#ffbebe"/>
      <g id="Right_Marker-8" data-name="Right Marker" transform="translate(91)">
        <path id="Path_3207-8" data-name="Path 3207" d="M281,0h4V-30h-4Z" transform="translate(-281 30)" fill="#ffbebe"/>
        <path id="Path_3209-8" data-name="Path 3209" d="M284,0h1V-30h-1Z" transform="translate(-281 30)" fill="#f99"/>
      </g>
      <g id="Left_Marker-8" data-name="Left Marker">
        <path id="Path_3217-8" data-name="Path 3217" d="M285,0h-4V-30h4Z" transform="translate(-281 30)" fill="#ffbebe"/>
        <path id="Path_3216-8" data-name="Path 3216" d="M285,0h-1V-30h1Z" transform="translate(-284 30)" fill="#ff7373"/>
      </g>
      <path id="col-1-15" data-name="col-1" d="M121-6h44V-24H121Z" transform="translate(-95.394 30)" fill="#ffbebe"/>
      <text id="col-1-16" data-name="col-1" transform="translate(13.508 6)" fill="#fff" font-size="12" font-family="HelveticaNeue-Bold, Helvetica Neue" font-weight="700"><tspan x="19.606" y="12">col-1</tspan></text>
    </g>
  </g>
  <g id="Grid_Ω_15px_Gutter-9" data-name="Grid/Ω/15px Gutter" transform="translate(855)">
    <rect id="base-9" data-name="base" width="95" height="60" fill="rgba(255,191,191,0.25)"/>
    <g id="Grid_Ω_Label-9" data-name="Grid/Ω/Label">
      <path id="width-9" data-name="width" d="M0-13H95v-4H0Z" transform="translate(0 30)" fill="#ffbebe"/>
      <g id="Right_Marker-9" data-name="Right Marker" transform="translate(91)">
        <path id="Path_3207-9" data-name="Path 3207" d="M281,0h4V-30h-4Z" transform="translate(-281 30)" fill="#ffbebe"/>
        <path id="Path_3209-9" data-name="Path 3209" d="M284,0h1V-30h-1Z" transform="translate(-281 30)" fill="#f99"/>
      </g>
      <g id="Left_Marker-9" data-name="Left Marker">
        <path id="Path_3217-9" data-name="Path 3217" d="M285,0h-4V-30h4Z" transform="translate(-281 30)" fill="#ffbebe"/>
        <path id="Path_3216-9" data-name="Path 3216" d="M285,0h-1V-30h1Z" transform="translate(-284 30)" fill="#ff7373"/>
      </g>
      <path id="col-1-17" data-name="col-1" d="M121-6h44V-24H121Z" transform="translate(-95.394 30)" fill="#ffbebe"/>
      <text id="col-1-18" data-name="col-1" transform="translate(13.508 6)" fill="#fff" font-size="12" font-family="HelveticaNeue-Bold, Helvetica Neue" font-weight="700"><tspan x="19.606" y="12">col-1</tspan></text>
    </g>
  </g>
  <g id="Grid_Ω_15px_Gutter-10" data-name="Grid/Ω/15px Gutter" transform="translate(285)">
    <rect id="base-10" data-name="base" width="95" height="60" fill="rgba(255,191,191,0.25)"/>
    <g id="Grid_Ω_Label-10" data-name="Grid/Ω/Label">
      <path id="width-10" data-name="width" d="M0-13H95v-4H0Z" transform="translate(0 30)" fill="#ffbebe"/>
      <g id="Right_Marker-10" data-name="Right Marker" transform="translate(91)">
        <path id="Path_3207-10" data-name="Path 3207" d="M281,0h4V-30h-4Z" transform="translate(-281 30)" fill="#ffbebe"/>
        <path id="Path_3209-10" data-name="Path 3209" d="M284,0h1V-30h-1Z" transform="translate(-281 30)" fill="#f99"/>
      </g>
      <g id="Left_Marker-10" data-name="Left Marker">
        <path id="Path_3217-10" data-name="Path 3217" d="M285,0h-4V-30h4Z" transform="translate(-281 30)" fill="#ffbebe"/>
        <path id="Path_3216-10" data-name="Path 3216" d="M285,0h-1V-30h1Z" transform="translate(-284 30)" fill="#ff7373"/>
      </g>
      <path id="col-1-19" data-name="col-1" d="M121-6h44V-24H121Z" transform="translate(-95.394 30)" fill="#ffbebe"/>
      <text id="col-1-20" data-name="col-1" transform="translate(13.508 6)" fill="#fff" font-size="12" font-family="HelveticaNeue-Bold, Helvetica Neue" font-weight="700"><tspan x="19.606" y="12">col-1</tspan></text>
    </g>
  </g>
  <g id="Grid_Ω_15px_Gutter-11" data-name="Grid/Ω/15px Gutter" transform="translate(665)">
    <rect id="base-11" data-name="base" width="95" height="60" fill="rgba(255,191,191,0.25)"/>
    <g id="Grid_Ω_Label-11" data-name="Grid/Ω/Label">
      <path id="width-11" data-name="width" d="M0-13H95v-4H0Z" transform="translate(0 30)" fill="#ffbebe"/>
      <g id="Right_Marker-11" data-name="Right Marker" transform="translate(91)">
        <path id="Path_3207-11" data-name="Path 3207" d="M281,0h4V-30h-4Z" transform="translate(-281 30)" fill="#ffbebe"/>
        <path id="Path_3209-11" data-name="Path 3209" d="M284,0h1V-30h-1Z" transform="translate(-281 30)" fill="#f99"/>
      </g>
      <g id="Left_Marker-11" data-name="Left Marker">
        <path id="Path_3217-11" data-name="Path 3217" d="M285,0h-4V-30h4Z" transform="translate(-281 30)" fill="#ffbebe"/>
        <path id="Path_3216-11" data-name="Path 3216" d="M285,0h-1V-30h1Z" transform="translate(-284 30)" fill="#ff7373"/>
      </g>
      <path id="col-1-21" data-name="col-1" d="M121-6h44V-24H121Z" transform="translate(-95.394 30)" fill="#ffbebe"/>
      <text id="col-1-22" data-name="col-1" transform="translate(13.508 6)" fill="#fff" font-size="12" font-family="HelveticaNeue-Bold, Helvetica Neue" font-weight="700"><tspan x="19.606" y="12">col-1</tspan></text>
    </g>
  </g>
  <g id="Grid_Ω_15px_Gutter-12" data-name="Grid/Ω/15px Gutter" transform="translate(1045)">
    <rect id="base-12" data-name="base" width="95" height="60" fill="rgba(255,191,191,0.25)"/>
    <g id="Grid_Ω_Label-12" data-name="Grid/Ω/Label">
      <path id="width-12" data-name="width" d="M0-13H95v-4H0Z" transform="translate(0 30)" fill="#ffbebe"/>
      <g id="Right_Marker-12" data-name="Right Marker" transform="translate(91)">
        <path id="Path_3207-12" data-name="Path 3207" d="M281,0h4V-30h-4Z" transform="translate(-281 30)" fill="#ffbebe"/>
        <path id="Path_3209-12" data-name="Path 3209" d="M284,0h1V-30h-1Z" transform="translate(-281 30)" fill="#f99"/>
      </g>
      <g id="Left_Marker-12" data-name="Left Marker">
        <path id="Path_3217-12" data-name="Path 3217" d="M285,0h-4V-30h4Z" transform="translate(-281 30)" fill="#ffbebe"/>
        <path id="Path_3216-12" data-name="Path 3216" d="M285,0h-1V-30h1Z" transform="translate(-284 30)" fill="#ff7373"/>
      </g>
      <path id="col-1-23" data-name="col-1" d="M121-6h44V-24H121Z" transform="translate(-95.394 30)" fill="#ffbebe"/>
      <text id="col-1-24" data-name="col-1" transform="translate(13.508 6)" fill="#fff" font-size="12" font-family="HelveticaNeue-Bold, Helvetica Neue" font-weight="700"><tspan x="19.606" y="12">col-1</tspan></text>
    </g>
  </g>
</svg>
