<svg id="InputGroup_Right_Button_Dropdown" data-name="InputGroup/Right/Button Dropdown" xmlns="http://www.w3.org/2000/svg" width="430" height="38" viewBox="0 0 430 38">
  <g id="Dropdown_Button_Right_Default" data-name="Dropdown/Button/Right/Default" transform="translate(305)">
    <g id="InputGroup_Base_Outline_Left" data-name="InputGroup/Base/Outline/Left" fill="#fff" stroke="#6c757d" stroke-width="1">
      <path d="M0,0H121a4,4,0,0,1,4,4V34a4,4,0,0,1-4,4H0a0,0,0,0,1,0,0V0A0,0,0,0,1,0,0Z" stroke="none"/>
      <path d="M1,.5H121A3.5,3.5,0,0,1,124.5,4V34a3.5,3.5,0,0,1-3.5,3.5H1A.5.5,0,0,1,.5,37V1A.5.5,0,0,1,1,.5Z" fill="none"/>
    </g>
    <g id="dropdown" transform="translate(-738 -791)">
      <g id="icon_dropdown_arrow_default" data-name="icon/dropdown arrow/default" transform="translate(835 803)">
        <rect id="Dropdown_Button_Ω_Carot_Down_background" data-name="Dropdown/Button/Ω/Carot/Down background" width="14" height="14" fill="none"/>
        <path id="icon_dropdown_arrow" data-name="icon/dropdown arrow" d="M.023-6h12L6,0Z" transform="translate(0.977 10)" fill="#6c757d"/>
      </g>
      <text id="Dropdown-2" data-name="Dropdown" transform="translate(752 816)" fill="#6c757d" font-size="16" font-family="HelveticaNeue, Helvetica Neue"><tspan x="0" y="0">Dropdown</tspan></text>
    </g>
  </g>
  <g id="InputGroup_Base_Text_Left_Medium" data-name="InputGroup/Base/Text/Left/Medium">
    <g id="InputGroup_Left_Placeholder" data-name="InputGroup/Left/Placeholder">
      <g id="InputGroup_Left_Placeholder-2" data-name="InputGroup/Left/Placeholder" fill="#fff" stroke="#ced4da" stroke-width="1">
        <path d="M4,0H305a0,0,0,0,1,0,0V38a0,0,0,0,1,0,0H4a4,4,0,0,1-4-4V4A4,4,0,0,1,4,0Z" stroke="none"/>
        <path d="M4,.5H304a.5.5,0,0,1,.5.5V37a.5.5,0,0,1-.5.5H4A3.5,3.5,0,0,1,.5,34V4A3.5,3.5,0,0,1,4,.5Z" fill="none"/>
      </g>
    </g>
  </g>
</svg>
