<svg id="InputGroup_Multiple_inputs_2Helpers" data-name="InputGroup/Multiple inputs/2Helpers" xmlns="http://www.w3.org/2000/svg" width="524" height="38" viewBox="0 0 524 38">
  <g id="InputGroup_Right_Placeholder" data-name="InputGroup/Right/Placeholder" transform="translate(146)">
    <g id="InputGroup_Right_Placeholder-2" data-name="InputGroup/Right/Placeholder" fill="#fff" stroke="#ced4da" stroke-width="1">
      <path d="M0,0H374a4,4,0,0,1,4,4V34a4,4,0,0,1-4,4H0a0,0,0,0,1,0,0V0A0,0,0,0,1,0,0Z" stroke="none"/>
      <path d="M1,.5H374A3.5,3.5,0,0,1,377.5,4V34a3.5,3.5,0,0,1-3.5,3.5H1A.5.5,0,0,1,.5,37V1A.5.5,0,0,1,1,.5Z" fill="none"/>
    </g>
  </g>
  <g id="InputGroup_Base_Helper_Left_Medium" data-name="InputGroup/Base/Helper/Left/Medium">
    <g id="InputGroup_Left_Placeholder" data-name="InputGroup/Left/Placeholder">
      <g id="InputGroup_Left_Placeholder-2" data-name="InputGroup/Left/Placeholder" fill="#e9ecef" stroke="#ced4da" stroke-width="1">
        <path d="M4,0H77a0,0,0,0,1,0,0V38a0,0,0,0,1,0,0H4a4,4,0,0,1-4-4V4A4,4,0,0,1,4,0Z" stroke="none"/>
        <path d="M4,.5H76a.5.5,0,0,1,.5.5V37a.5.5,0,0,1-.5.5H4A3.5,3.5,0,0,1,.5,34V4A3.5,3.5,0,0,1,4,.5Z" fill="none"/>
      </g>
    </g>
    <text id="Button" transform="translate(14 25)" fill="#343a40" font-size="16" font-family="HelveticaNeue, Helvetica Neue"><tspan x="0" y="0">Button</tspan></text>
  </g>
  <g id="InputGroup_Base_Helper_Middle_Medium" data-name="InputGroup/Base/Helper/Middle/Medium" transform="translate(76)">
    <g id="InputGroup_Middle_Placeholder" data-name="InputGroup/Middle/Placeholder">
      <g id="InputGroup_Middle_Placeholder-2" data-name="InputGroup/Middle/Placeholder" fill="#e9ecef" stroke="#ced4da" stroke-width="1">
        <rect width="76" height="38" stroke="none"/>
        <rect x="0.5" y="0.5" width="75" height="37" fill="none"/>
      </g>
    </g>
    <text id="_.00" data-name=".00" transform="translate(14 25)" fill="#343a40" font-size="16" font-family="HelveticaNeue, Helvetica Neue"><tspan x="0" y="0">.00</tspan></text>
  </g>
</svg>
