<svg id="InputGroup_Select_Left_Large" data-name="InputGroup/Select/Left/Large" xmlns="http://www.w3.org/2000/svg" width="190" height="48" viewBox="0 0 190 48">
  <g id="Group_835" data-name="Group 835">
    <g id="InputGroup_Left_Placeholder_Large" data-name="InputGroup/Left/Placeholder/Large">
      <g id="InputGroup_Left_Placeholder_Large-2" data-name="InputGroup/Left/Placeholder/Large" fill="#fff" stroke="#ced4da" stroke-width="1">
        <path d="M4,0H190a0,0,0,0,1,0,0V48a0,0,0,0,1,0,0H4a4,4,0,0,1-4-4V4A4,4,0,0,1,4,0Z" stroke="none"/>
        <path d="M4,.5H189a.5.5,0,0,1,.5.5V47a.5.5,0,0,1-.5.5H4A3.5,3.5,0,0,1,.5,44V4A3.5,3.5,0,0,1,4,.5Z" fill="none"/>
      </g>
    </g>
    <g id="icon_double_caret" data-name="icon/double caret" transform="translate(165 16)">
      <rect id="base" width="17" height="17" fill="none"/>
      <path id="select" d="M3886.877,524.493l4.389,4.371,4.223-4.371" transform="translate(-3883.877 -519.493)" fill="none" stroke="#343a40" stroke-linecap="round" stroke-linejoin="round" stroke-width="1"/>
    </g>
    <text id="Choose_" data-name="Choose…" transform="translate(10 31)" font-size="20" font-family="HelveticaNeue, Helvetica Neue"><tspan x="0" y="0">Choose…</tspan></text>
  </g>
</svg>
