<svg id="icon_chevron-double-left" data-name="icon/chevron-double-left" xmlns="http://www.w3.org/2000/svg" width="10" height="10" viewBox="0 0 10 10">
  <rect id="placeholder" width="10" height="10" fill="none"/>
  <g id="chevron-double-left" transform="translate(0.501 0.501)">
    <path id="Path_680" data-name="Path 680" d="M4.436,1.567a.243.243,0,0,1,0,.327L2.017,4.5,4.436,7.1a.244.244,0,0,1,0,.327.2.2,0,0,1-.3,0L1.562,4.663a.243.243,0,0,1,0-.327L4.133,1.567a.2.2,0,0,1,.3,0Z" transform="translate(0 0)" fill-rule="evenodd"/>
    <path id="Path_681" data-name="Path 681" d="M8.436,1.567a.243.243,0,0,1,0,.327L6.017,4.5,8.436,7.1a.244.244,0,0,1,0,.327.2.2,0,0,1-.3,0L5.562,4.663a.243.243,0,0,1,0-.327L8.133,1.567a.2.2,0,0,1,.3,0Z" transform="translate(-1 0)" fill-rule="evenodd"/>
  </g>
</svg>
