<svg id="icon_image" data-name="icon/image" xmlns="http://www.w3.org/2000/svg" width="200" height="175" viewBox="0 0 200 175">
  <path id="Path_580" data-name="Path 580" d="M175,13.5H25A12.5,12.5,0,0,0,12.5,26V151A12.5,12.5,0,0,0,25,163.5H175A12.5,12.5,0,0,0,187.5,151V26A12.5,12.5,0,0,0,175,13.5ZM25,1A25,25,0,0,0,0,26V151a25,25,0,0,0,25,25H175a25,25,0,0,0,25-25V26A25,25,0,0,0,175,1H25Z" transform="translate(-0.002 -1)" fill="#f8f9fa" fill-rule="evenodd"/>
  <path id="Path_581" data-name="Path 581" d="M130.477,9.459a6.711,6.711,0,0,1,7.745-1.248l50.7,26.134v60.4H1V67.9L36.518,36.3a6.711,6.711,0,0,1,8.456-.832l35.7,23.8,49.8-49.8Z" transform="translate(5.039 70.752)" fill="#f8f9fa"/>
  <path id="Path_582" data-name="Path 582" d="M21.752,41.5A18.75,18.75,0,1,0,3,22.75,18.75,18.75,0,0,0,21.752,41.5Z" transform="translate(34.498 33.5)" fill="#f8f9fa" fill-rule="evenodd"/>
</svg>
