<svg xmlns="http://www.w3.org/2000/svg" xmlns:xlink="http://www.w3.org/1999/xlink" width="482" height="167" viewBox="0 0 482 167">
  <defs>
    <filter id="Rectangle" x="0" y="0" width="482" height="167" filterUnits="userSpaceOnUse">
      <feOffset dy="5" input="SourceAlpha"/>
      <feGaussianBlur stdDeviation="10" result="blur"/>
      <feFlood flood-color="#6c757d" flood-opacity="0.231"/>
      <feComposite operator="in" in2="blur"/>
      <feComposite in="SourceGraphic"/>
    </filter>
  </defs>
  <g id="Toasts_Basic" data-name="Toasts/Basic" transform="translate(30 25)">
    <g transform="matrix(1, 0, 0, 1, -30, -25)" filter="url(#Rectangle)">
      <g id="Rectangle-2" data-name="Rectangle" transform="translate(30 25)" fill="#fff" stroke="rgba(0,0,0,0.2)" stroke-miterlimit="10" stroke-width="1">
        <rect width="422" height="107" rx="4" stroke="none"/>
        <rect x="0.5" y="0.5" width="421" height="106" rx="3.5" fill="none"/>
      </g>
    </g>
    <g id="Message" transform="translate(-75 -291)">
      <g id="padding">
        <path id="background" d="M0,0H420a0,0,0,0,1,0,0V48a4,4,0,0,1-4,4H4a4,4,0,0,1-4-4V0A0,0,0,0,1,0,0Z" transform="translate(76 345)" fill="#fff"/>
        <text id="Body_Text" data-name="Body Text" transform="translate(92 361)" fill="#212529" font-size="17" font-family="HelveticaNeue, Helvetica Neue"><tspan x="0" y="16">Hello, world! This is a toast message</tspan></text>
      </g>
      <rect id="Top_Divider" data-name="Top Divider" width="420" height="1" transform="translate(76 345)" fill="#ccc" opacity="0.6"/>
    </g>
    <g id="Title" transform="translate(17 -292)">
      <g id="icon_close" data-name="icon/close" transform="translate(373 310)">
        <rect id="Rectangle_91" data-name="Rectangle 91" width="18" height="18" fill="none"/>
        <path id="Line" d="M0,0,11.571,11.571" transform="translate(3.214 3.214)" fill="none" stroke="#343a40" stroke-miterlimit="10" stroke-width="3"/>
        <path id="Line-2" data-name="Line" d="M11.571,0,0,11.571" transform="translate(3.214 3.214)" fill="none" stroke="#343a40" stroke-miterlimit="10" stroke-width="3"/>
      </g>
      <text id="Modal_title" data-name="Modal title" transform="translate(40 327)" fill="#6c757d" font-size="20" font-family="HelveticaNeue-Bold, Helvetica Neue" font-weight="700"><tspan x="0" y="0">Bootstrap</tspan></text>
      <text id="Modal_title-2" data-name="Modal title" transform="translate(363 325)" fill="#6c757d" font-size="16" font-family="HelveticaNeue, Helvetica Neue"><tspan x="-97.504" y="0">2 second ago</tspan></text>
      <rect id="Background-2" data-name="Background" width="30" height="30" rx="4" transform="translate(0 304)" fill="#007bff"/>
    </g>
  </g>
</svg>
