<svg id="InputGroup_Base_Helper_Left_Medium" data-name="InputGroup/Base/Helper/Left/Medium" xmlns="http://www.w3.org/2000/svg" width="76" height="38" viewBox="0 0 76 38">
  <g id="InputGroup_Left_Placeholder" data-name="InputGroup/Left/Placeholder">
    <g id="InputGroup_Left_Placeholder-2" data-name="InputGroup/Left/Placeholder" fill="#e9ecef" stroke="#ced4da" stroke-width="1">
      <path d="M4,0H76a0,0,0,0,1,0,0V38a0,0,0,0,1,0,0H4a4,4,0,0,1-4-4V4A4,4,0,0,1,4,0Z" stroke="none"/>
      <path d="M4,.5H75a.5.5,0,0,1,.5.5V37a.5.5,0,0,1-.5.5H4A3.5,3.5,0,0,1,.5,34V4A3.5,3.5,0,0,1,4,.5Z" fill="none"/>
    </g>
  </g>
  <text id="Button" transform="translate(14 25)" fill="#343a40" font-size="16" font-family="HelveticaNeue, Helvetica Neue"><tspan x="0" y="0">Button</tspan></text>
</svg>
