<svg id="Dropdown_Button_Left_Small" data-name="Dropdown/Button/Left/Small" xmlns="http://www.w3.org/2000/svg" width="131" height="31" viewBox="0 0 131 31">
  <g id="Primary_007BFF" data-name="Primary / #007BFF" fill="#fff" stroke="#6c757d" stroke-width="1">
    <path d="M5,0H131a0,0,0,0,1,0,0V31a0,0,0,0,1,0,0H5a5,5,0,0,1-5-5V5A5,5,0,0,1,5,0Z" stroke="none"/>
    <path d="M5,.5H130a.5.5,0,0,1,.5.5V30a.5.5,0,0,1-.5.5H5A4.5,4.5,0,0,1,.5,26V5A4.5,4.5,0,0,1,5,.5Z" fill="none"/>
  </g>
  <g id="icon_dropdown_arrow_small" data-name="icon/dropdown arrow/small" transform="translate(105 11)">
    <rect id="Dropdown_Button_Ω_Carot_Down_background" data-name="Dropdown/Button/Ω/Carot/Down background" width="10" height="10" fill="none"/>
    <path id="Mask" d="M0,0H10L5,5Z" transform="translate(0 2.5)" fill="#6c757d"/>
  </g>
  <text id="Small_Button" data-name="Small Button" transform="translate(16 20)" fill="#6c757d" font-size="14" font-family="HelveticaNeue, Helvetica Neue"><tspan x="0" y="0">Small Button</tspan></text>
</svg>
