<svg id="Dropdown_Button_Split_Button_Info" data-name="Dropdown/Button/Split Button/Info" xmlns="http://www.w3.org/2000/svg" width="83" height="38" viewBox="0 0 83 38">
  <g id="Dropdown_Selector" data-name="Dropdown Selector" transform="translate(57.262 -0.5)">
    <path id="Style" d="M0,0H26a4,4,0,0,1,4,4V34a4,4,0,0,1-4,4H0a0,0,0,0,1,0,0V0A0,0,0,0,1,0,0Z" transform="translate(-4.262 0.5)" fill="#17a2b8"/>
    <path id="Mask" d="M0,0H12L6,6Z" transform="translate(4.738 16.5)" fill="#fff"/>
  </g>
  <g id="Button" transform="translate(0.5)">
    <path id="Style-2" data-name="Style" d="M4,0H53a0,0,0,0,1,0,0V38a0,0,0,0,1,0,0H4a4,4,0,0,1-4-4V4A4,4,0,0,1,4,0Z" transform="translate(-0.5)" fill="#17a2b8"/>
    <text id="Label" transform="translate(12.5 24)" fill="#fff" font-size="16" font-family="HelveticaNeue, Helvetica Neue"><tspan x="0" y="0">Info</tspan></text>
  </g>
</svg>
