<svg id="InputGroup_Left_Placeholder" data-name="InputGroup/Left/Placeholder" xmlns="http://www.w3.org/2000/svg" width="70" height="38" viewBox="0 0 70 38">
  <g id="InputGroup_Left_Placeholder-2" data-name="InputGroup/Left/Placeholder" fill="#fff" stroke="#ced4da" stroke-width="1">
    <path d="M4,0H70a0,0,0,0,1,0,0V38a0,0,0,0,1,0,0H4a4,4,0,0,1-4-4V4A4,4,0,0,1,4,0Z" stroke="none"/>
    <path d="M4,.5H69a.5.5,0,0,1,.5.5V37a.5.5,0,0,1-.5.5H4A3.5,3.5,0,0,1,.5,34V4A3.5,3.5,0,0,1,4,.5Z" fill="none"/>
  </g>
</svg>
