<svg id="Dropdown_Split_Left_Large" data-name="Dropdown/Split/Left/Large" xmlns="http://www.w3.org/2000/svg" width="38" height="48" viewBox="0 0 38 48">
  <g id="Style" fill="none" stroke="#6c757d" stroke-width="1">
    <path d="M5,0H38a0,0,0,0,1,0,0V48a0,0,0,0,1,0,0H4a4,4,0,0,1-4-4V5A5,5,0,0,1,5,0Z" stroke="none"/>
    <path d="M5,.5H37a.5.5,0,0,1,.5.5V47a.5.5,0,0,1-.5.5H4A3.5,3.5,0,0,1,.5,44V5A4.5,4.5,0,0,1,5,.5Z" fill="none"/>
  </g>
  <g id="icon_dropdown_arrow_large" data-name="icon/dropdown arrow/large" transform="translate(10.5 16)">
    <rect id="Dropdown_Button_Ω_Carot_Down_background" data-name="Dropdown/Button/Ω/Carot/Down background" width="16" height="16" fill="none"/>
    <path id="Mask" d="M0,0H16L8,8Z" transform="translate(0 4)" fill="#6c757d"/>
  </g>
</svg>
