<svg id="InputGroup_Base_Text_Right_Medium" data-name="InputGroup/Base/Text/Right/Medium" xmlns="http://www.w3.org/2000/svg" width="76" height="38" viewBox="0 0 76 38">
  <g id="InputGroup_Right_Placeholder" data-name="InputGroup/Right/Placeholder">
    <g id="InputGroup_Right_Placeholder-2" data-name="InputGroup/Right/Placeholder" fill="#fff" stroke="#ced4da" stroke-width="1">
      <path d="M0,0H72a4,4,0,0,1,4,4V34a4,4,0,0,1-4,4H0a0,0,0,0,1,0,0V0A0,0,0,0,1,0,0Z" stroke="none"/>
      <path d="M1,.5H72A3.5,3.5,0,0,1,75.5,4V34A3.5,3.5,0,0,1,72,37.5H1A.5.5,0,0,1,.5,37V1A.5.5,0,0,1,1,.5Z" fill="none"/>
    </g>
  </g>
  <text id="Button" transform="translate(14 25)" fill="#868e96" font-size="16" font-family="HelveticaNeue, Helvetica Neue"><tspan x="0" y="0">Button</tspan></text>
</svg>
