<svg id="Spinner_Border" data-name="Spinner/Border" xmlns="http://www.w3.org/2000/svg" width="24" height="23.999" viewBox="0 0 24 23.999">
  <path id="Spinner_Border-2" data-name="Spinner/Border" d="M-9239-10149a11.929,11.929,0,0,1-4.671-.941,11.89,11.89,0,0,1-3.814-2.572,11.96,11.96,0,0,1-2.572-3.812A11.936,11.936,0,0,1-9251-10161a11.928,11.928,0,0,1,.943-4.671,11.969,11.969,0,0,1,2.572-3.814,11.977,11.977,0,0,1,3.814-2.573A11.927,11.927,0,0,1-9239-10173v3.6h0a8.341,8.341,0,0,0-5.937,2.461,8.346,8.346,0,0,0-2.461,5.94,8.338,8.338,0,0,0,2.461,5.939,8.345,8.345,0,0,0,5.939,2.46,8.342,8.342,0,0,0,5.938-2.46,8.342,8.342,0,0,0,2.461-5.939h3.6a11.953,11.953,0,0,1-.942,4.672,11.99,11.99,0,0,1-2.571,3.813,11.972,11.972,0,0,1-3.816,2.572A11.909,11.909,0,0,1-9239-10149Z" transform="translate(9251 10173.001)" fill="#007bff"/>
</svg>
