<svg id="Dropdown_Split_Right_Small" data-name="Dropdown/Split/Right/Small" xmlns="http://www.w3.org/2000/svg" width="30" height="31" viewBox="0 0 30 31">
  <g id="Style" fill="#fff" stroke="#707070" stroke-width="1">
    <path d="M0,0H25a5,5,0,0,1,5,5V26a5,5,0,0,1-5,5H0a0,0,0,0,1,0,0V0A0,0,0,0,1,0,0Z" stroke="none"/>
    <path d="M1,.5H25A4.5,4.5,0,0,1,29.5,5V26A4.5,4.5,0,0,1,25,30.5H1A.5.5,0,0,1,.5,30V1A.5.5,0,0,1,1,.5Z" fill="none"/>
  </g>
  <g id="icon_dropdown_arrow_small" data-name="icon/dropdown arrow/small" transform="translate(10 11)">
    <rect id="Dropdown_Button_Ω_Carot_Down_background" data-name="Dropdown/Button/Ω/Carot/Down background" width="10" height="10" fill="none"/>
    <path id="Mask" d="M0,0H10L5,5Z" transform="translate(0 2.5)" fill="#6c757d"/>
  </g>
</svg>
