<svg id="Dropdown_Split_Right" data-name="Dropdown/Split/Right" xmlns="http://www.w3.org/2000/svg" width="30" height="38" viewBox="0 0 30 38">
  <g id="Style" fill="none" stroke="#6c757d" stroke-width="1">
    <path d="M0,0H25a5,5,0,0,1,5,5V33a5,5,0,0,1-5,5H0a0,0,0,0,1,0,0V0A0,0,0,0,1,0,0Z" stroke="none"/>
    <path d="M1,.5H25A4.5,4.5,0,0,1,29.5,5V33A4.5,4.5,0,0,1,25,37.5H1A.5.5,0,0,1,.5,37V1A.5.5,0,0,1,1,.5Z" fill="none"/>
  </g>
  <g id="icon_dropdown_arrow_default" data-name="icon/dropdown arrow/default" transform="translate(8 12)">
    <rect id="Dropdown_Button_Ω_Carot_Down_background" data-name="Dropdown/Button/Ω/Carot/Down background" width="14" height="14" fill="none"/>
    <path id="icon_dropdown_arrow" data-name="icon/dropdown arrow" d="M.023-6h12L6,0Z" transform="translate(0.977 10)" fill="#6c757d"/>
  </g>
</svg>
