<svg id="Popover_Simple" data-name="Popover/Simple" xmlns="http://www.w3.org/2000/svg" width="258" height="72" viewBox="0 0 258 72">
  <g id="Combined_Shape" data-name="Combined Shape" fill="#fff" stroke-miterlimit="10">
    <path d="M124.034,67.035H4a4,4,0,0,1-4-4V4A4,4,0,0,1,4,0H254a4,4,0,0,1,4,4V63.034a4,4,0,0,1-4,4H133.965L129,72Z" stroke="none"/>
    <path d="M 128.9997253417969 70.58578491210938 L 133.2579040527344 66.32760620117188 L 133.5507965087891 66.03471374511719 L 133.9650115966797 66.03471374511719 L 253.9998016357422 66.03471374511719 C 255.6542663574219 66.03471374511719 257.0003051757812 64.68867492675781 257.0003051757812 63.03421401977539 L 257.0003051757812 3.999607086181641 C 257.0003051757812 2.345607042312622 255.6542663574219 1 253.9998016357422 1 L 3.999616861343384 1 C 2.345616817474365 1 1.000009775161743 2.345607042312622 1.000009775161743 3.999607086181641 L 1.000009775161743 63.03421401977539 C 1.000009775161743 64.68867492675781 2.345616817474365 66.03471374511719 3.999616861343384 66.03471374511719 L 124.0344009399414 66.03471374511719 L 124.448616027832 66.03471374511719 L 124.7415084838867 66.32760620117188 L 128.9997253417969 70.58578491210938 M 128.9997253417969 72 L 124.0344009399414 67.03471374511719 L 3.999616861343384 67.03471374511719 C 1.791009783744812 67.03471374511719 9.730747478897683e-06 65.24371337890625 9.730747478897683e-06 63.03421401977539 L 9.730747478897683e-06 3.999607086181641 C 9.730747478897683e-06 1.791000008583069 1.791009783744812 7.105427357601002e-15 3.999616861343384 7.105427357601002e-15 L 253.9998016357422 7.105427357601002e-15 C 256.2093200683594 7.105427357601002e-15 258.0003051757812 1.791000008583069 258.0003051757812 3.999607086181641 L 258.0003051757812 63.03421401977539 C 258.0003051757812 65.24371337890625 256.2093200683594 67.03471374511719 253.9998016357422 67.03471374511719 L 133.9650115966797 67.03471374511719 L 128.9997253417969 72 Z" stroke="none" fill="rgba(0,0,0,0.2)"/>
  </g>
  <text id="Body" transform="translate(12 12)" fill="#212529" font-size="14" font-family="HelveticaNeue, Helvetica Neue"><tspan x="0" y="13">Vivamus sagittis lacus vel augue </tspan><tspan x="0" y="34">laoreet rutrum faucibus.</tspan></text>
</svg>
