<svg id="InputGroup_With_Checkbox" data-name="InputGroup/With Checkbox" xmlns="http://www.w3.org/2000/svg" width="245" height="38" viewBox="0 0 245 38">
  <g id="InputGroup_Right_Placeholder" data-name="InputGroup/Right/Placeholder" transform="translate(43)">
    <g id="InputGroup_Right_Placeholder-2" data-name="InputGroup/Right/Placeholder" fill="#fff" stroke="#ced4da" stroke-width="1">
      <path d="M0,0H198a4,4,0,0,1,4,4V34a4,4,0,0,1-4,4H0a0,0,0,0,1,0,0V0A0,0,0,0,1,0,0Z" stroke="none"/>
      <path d="M1,.5H198A3.5,3.5,0,0,1,201.5,4V34a3.5,3.5,0,0,1-3.5,3.5H1A.5.5,0,0,1,.5,37V1A.5.5,0,0,1,1,.5Z" fill="none"/>
    </g>
  </g>
  <g id="InputGroup_Checkbox" data-name="InputGroup/Checkbox">
    <g id="InputGroup_Base_Helper_Left" data-name="InputGroup/Base/Helper/Left" fill="#e9ecef" stroke="#ced4da" stroke-width="1">
      <path d="M4,0H44a0,0,0,0,1,0,0V38a0,0,0,0,1,0,0H4a4,4,0,0,1-4-4V4A4,4,0,0,1,4,0Z" stroke="none"/>
      <path d="M4,.5H43a.5.5,0,0,1,.5.5V37a.5.5,0,0,1-.5.5H4A3.5,3.5,0,0,1,.5,34V4A3.5,3.5,0,0,1,4,.5Z" fill="none"/>
    </g>
    <g id="Checkbox" transform="translate(14 11)">
      <g id="Rectangle" fill="#fff" stroke="#b7b7b7" stroke-miterlimit="10" stroke-width="1">
        <rect width="16" height="16" rx="3" stroke="none"/>
        <rect x="0.5" y="0.5" width="15" height="15" rx="2.5" fill="none"/>
      </g>
    </g>
  </g>
</svg>
