<svg id="Dropdown_Button_Split_Button_Warning_Small" data-name="Dropdown/Button/Split Button/Warning/Small" xmlns="http://www.w3.org/2000/svg" width="108" height="31" viewBox="0 0 108 31">
  <g id="Dropdown_Selector" data-name="Dropdown Selector" transform="translate(84.262 -0.5)">
    <rect id="Style" width="108" height="31" rx="4" transform="translate(-84.262 0.5)" fill="#ffc107"/>
    <path id="Style-2" data-name="Style" d="M0,0H26a4,4,0,0,1,4,4V27a4,4,0,0,1-4,4H0a0,0,0,0,1,0,0V0A0,0,0,0,1,0,0Z" transform="translate(-6.262 0.5)" fill="#ffc107"/>
    <g id="icon_dropdown_arrow_small" data-name="icon/dropdown arrow/small" transform="translate(3.738 11.5)">
      <rect id="Dropdown_Button_Ω_Carot_Down_background" data-name="Dropdown/Button/Ω/Carot/Down background" width="10" height="10" fill="none"/>
      <path id="Mask" d="M0,0H10L5,5Z" transform="translate(0 2.5)" fill="#343a40"/>
    </g>
  </g>
  <text id="Label" transform="translate(13 20)" fill="#343a40" font-size="14" font-family="HelveticaNeue, Helvetica Neue"><tspan x="0" y="0">Warning</tspan></text>
</svg>
