<svg id="Grid_Even_12_Column_Standard" data-name="Grid/Even/12 Column/Standard" xmlns="http://www.w3.org/2000/svg" width="1140" height="100" viewBox="0 0 1140 100">
  <g id="Column_1" data-name="Column 1">
    <rect id="Left_Gutter" data-name="Left Gutter" width="16" height="100" fill="rgba(255,191,191,0.35)"/>
    <rect id="Right_Gutter" data-name="Right Gutter" width="16" height="100" transform="translate(79)" fill="rgba(255,191,191,0.24)"/>
    <g id="Grid_Ω_Label" data-name="Grid/Ω/Label">
      <path id="width" d="M0-13H95v-4H0Z" transform="translate(0 30)" fill="#ffbebe"/>
      <g id="Right_Marker" data-name="Right Marker" transform="translate(91)">
        <path id="Path_3207" data-name="Path 3207" d="M281,0h4V-30h-4Z" transform="translate(-281 30)" fill="#ffbebe"/>
        <path id="Path_3209" data-name="Path 3209" d="M284,0h1V-30h-1Z" transform="translate(-281 30)" fill="#f99"/>
      </g>
      <g id="Left_Marker" data-name="Left Marker">
        <path id="Path_3217" data-name="Path 3217" d="M285,0h-4V-30h4Z" transform="translate(-281 30)" fill="#ffbebe"/>
        <path id="Path_3216" data-name="Path 3216" d="M285,0h-1V-30h1Z" transform="translate(-284 30)" fill="#ff7373"/>
      </g>
      <path id="col-1" d="M121-6h44V-24H121Z" transform="translate(-95.394 30)" fill="#ffbebe"/>
      <text id="c_o_l-_1" data-name="c
o
l-
1" transform="translate(40.167 8)" fill="#fff" font-size="12" font-family="HelveticaNeue-Bold, Helvetica Neue" font-weight="700"><tspan x="4.056" y="12">c</tspan></text>
    </g>
  </g>
  <g id="Column_2" data-name="Column 2" transform="translate(95)">
    <rect id="Left_Gutter-2" data-name="Left Gutter" width="16" height="100" fill="rgba(255,191,191,0.35)"/>
    <rect id="Right_Gutter-2" data-name="Right Gutter" width="16" height="100" transform="translate(79)" fill="rgba(255,191,191,0.24)"/>
    <g id="Grid_Ω_Label-2" data-name="Grid/Ω/Label">
      <path id="width-2" data-name="width" d="M0-13H95v-4H0Z" transform="translate(0 30)" fill="#ffbebe"/>
      <g id="Right_Marker-2" data-name="Right Marker" transform="translate(91)">
        <path id="Path_3207-2" data-name="Path 3207" d="M281,0h4V-30h-4Z" transform="translate(-281 30)" fill="#ffbebe"/>
        <path id="Path_3209-2" data-name="Path 3209" d="M284,0h1V-30h-1Z" transform="translate(-281 30)" fill="#f99"/>
      </g>
      <g id="Left_Marker-2" data-name="Left Marker">
        <path id="Path_3217-2" data-name="Path 3217" d="M285,0h-4V-30h4Z" transform="translate(-281 30)" fill="#ffbebe"/>
        <path id="Path_3216-2" data-name="Path 3216" d="M285,0h-1V-30h1Z" transform="translate(-284 30)" fill="#ff7373"/>
      </g>
      <path id="col-1-2" data-name="col-1" d="M121-6h44V-24H121Z" transform="translate(-95.394 30)" fill="#ffbebe"/>
      <text id="col-1-3" data-name="col-1" transform="translate(27.167 8)" fill="#fff" font-size="12" font-family="HelveticaNeue-Bold, Helvetica Neue" font-weight="700"><tspan x="6.064" y="12">col-1</tspan></text>
    </g>
  </g>
  <g id="Column_3" data-name="Column 3" transform="translate(190)">
    <rect id="Left_Gutter-3" data-name="Left Gutter" width="16" height="100" fill="rgba(255,191,191,0.35)"/>
    <rect id="Right_Gutter-3" data-name="Right Gutter" width="16" height="100" transform="translate(79)" fill="rgba(255,191,191,0.24)"/>
    <g id="Grid_Ω_Label-3" data-name="Grid/Ω/Label">
      <path id="width-3" data-name="width" d="M0-13H95v-4H0Z" transform="translate(0 30)" fill="#ffbebe"/>
      <g id="Right_Marker-3" data-name="Right Marker" transform="translate(91)">
        <path id="Path_3207-3" data-name="Path 3207" d="M281,0h4V-30h-4Z" transform="translate(-281 30)" fill="#ffbebe"/>
        <path id="Path_3209-3" data-name="Path 3209" d="M284,0h1V-30h-1Z" transform="translate(-281 30)" fill="#f99"/>
      </g>
      <g id="Left_Marker-3" data-name="Left Marker">
        <path id="Path_3217-3" data-name="Path 3217" d="M285,0h-4V-30h4Z" transform="translate(-281 30)" fill="#ffbebe"/>
        <path id="Path_3216-3" data-name="Path 3216" d="M285,0h-1V-30h1Z" transform="translate(-284 30)" fill="#ff7373"/>
      </g>
      <path id="col-1-4" data-name="col-1" d="M121-6h44V-24H121Z" transform="translate(-95.394 30)" fill="#ffbebe"/>
      <text id="col-1-5" data-name="col-1" transform="translate(27.167 8)" fill="#fff" font-size="12" font-family="HelveticaNeue-Bold, Helvetica Neue" font-weight="700"><tspan x="6.064" y="12">col-1</tspan></text>
    </g>
  </g>
  <g id="Column_1-2" data-name="Column 1" transform="translate(380)">
    <rect id="Left_Gutter-4" data-name="Left Gutter" width="16" height="100" fill="rgba(255,191,191,0.35)"/>
    <rect id="Right_Gutter-4" data-name="Right Gutter" width="16" height="100" transform="translate(79)" fill="rgba(255,191,191,0.24)"/>
    <g id="Grid_Ω_Label-4" data-name="Grid/Ω/Label">
      <path id="width-4" data-name="width" d="M0-13H95v-4H0Z" transform="translate(0 30)" fill="#ffbebe"/>
      <g id="Right_Marker-4" data-name="Right Marker" transform="translate(91)">
        <path id="Path_3207-4" data-name="Path 3207" d="M281,0h4V-30h-4Z" transform="translate(-281 30)" fill="#ffbebe"/>
        <path id="Path_3209-4" data-name="Path 3209" d="M284,0h1V-30h-1Z" transform="translate(-281 30)" fill="#f99"/>
      </g>
      <g id="Left_Marker-4" data-name="Left Marker">
        <path id="Path_3217-4" data-name="Path 3217" d="M285,0h-4V-30h4Z" transform="translate(-281 30)" fill="#ffbebe"/>
        <path id="Path_3216-4" data-name="Path 3216" d="M285,0h-1V-30h1Z" transform="translate(-284 30)" fill="#ff7373"/>
      </g>
      <path id="col-1-6" data-name="col-1" d="M121-6h44V-24H121Z" transform="translate(-95.394 30)" fill="#ffbebe"/>
      <text id="col-1-7" data-name="col-1" transform="translate(27.167 8)" fill="#fff" font-size="12" font-family="HelveticaNeue-Bold, Helvetica Neue" font-weight="700"><tspan x="6.064" y="12">col-1</tspan></text>
    </g>
  </g>
  <g id="Column_1-3" data-name="Column 1" transform="translate(760)">
    <rect id="Left_Gutter-5" data-name="Left Gutter" width="16" height="100" fill="rgba(255,191,191,0.35)"/>
    <rect id="Right_Gutter-5" data-name="Right Gutter" width="16" height="100" transform="translate(79)" fill="rgba(255,191,191,0.24)"/>
    <g id="Grid_Ω_Label-5" data-name="Grid/Ω/Label">
      <path id="width-5" data-name="width" d="M0-13H95v-4H0Z" transform="translate(0 30)" fill="#ffbebe"/>
      <g id="Right_Marker-5" data-name="Right Marker" transform="translate(91)">
        <path id="Path_3207-5" data-name="Path 3207" d="M281,0h4V-30h-4Z" transform="translate(-281 30)" fill="#ffbebe"/>
        <path id="Path_3209-5" data-name="Path 3209" d="M284,0h1V-30h-1Z" transform="translate(-281 30)" fill="#f99"/>
      </g>
      <g id="Left_Marker-5" data-name="Left Marker">
        <path id="Path_3217-5" data-name="Path 3217" d="M285,0h-4V-30h4Z" transform="translate(-281 30)" fill="#ffbebe"/>
        <path id="Path_3216-5" data-name="Path 3216" d="M285,0h-1V-30h1Z" transform="translate(-284 30)" fill="#ff7373"/>
      </g>
      <path id="col-1-8" data-name="col-1" d="M121-6h44V-24H121Z" transform="translate(-95.394 30)" fill="#ffbebe"/>
      <text id="col-1-9" data-name="col-1" transform="translate(27.167 8)" fill="#fff" font-size="12" font-family="HelveticaNeue-Bold, Helvetica Neue" font-weight="700"><tspan x="6.064" y="12">col-1</tspan></text>
    </g>
  </g>
  <g id="Column_1-4" data-name="Column 1" transform="translate(570)">
    <rect id="Left_Gutter-6" data-name="Left Gutter" width="16" height="100" fill="rgba(255,191,191,0.35)"/>
    <rect id="Right_Gutter-6" data-name="Right Gutter" width="16" height="100" transform="translate(79)" fill="rgba(255,191,191,0.24)"/>
    <g id="Grid_Ω_Label-6" data-name="Grid/Ω/Label">
      <path id="width-6" data-name="width" d="M0-13H95v-4H0Z" transform="translate(0 30)" fill="#ffbebe"/>
      <g id="Right_Marker-6" data-name="Right Marker" transform="translate(91)">
        <path id="Path_3207-6" data-name="Path 3207" d="M281,0h4V-30h-4Z" transform="translate(-281 30)" fill="#ffbebe"/>
        <path id="Path_3209-6" data-name="Path 3209" d="M284,0h1V-30h-1Z" transform="translate(-281 30)" fill="#f99"/>
      </g>
      <g id="Left_Marker-6" data-name="Left Marker">
        <path id="Path_3217-6" data-name="Path 3217" d="M285,0h-4V-30h4Z" transform="translate(-281 30)" fill="#ffbebe"/>
        <path id="Path_3216-6" data-name="Path 3216" d="M285,0h-1V-30h1Z" transform="translate(-284 30)" fill="#ff7373"/>
      </g>
      <path id="col-1-10" data-name="col-1" d="M121-6h44V-24H121Z" transform="translate(-95.394 30)" fill="#ffbebe"/>
      <text id="col-1-11" data-name="col-1" transform="translate(27.167 8)" fill="#fff" font-size="12" font-family="HelveticaNeue-Bold, Helvetica Neue" font-weight="700"><tspan x="6.064" y="12">col-1</tspan></text>
    </g>
  </g>
  <g id="Column_1-5" data-name="Column 1" transform="translate(950)">
    <rect id="Left_Gutter-7" data-name="Left Gutter" width="16" height="100" fill="rgba(255,191,191,0.35)"/>
    <rect id="Right_Gutter-7" data-name="Right Gutter" width="16" height="100" transform="translate(79)" fill="rgba(255,191,191,0.24)"/>
    <g id="Grid_Ω_Label-7" data-name="Grid/Ω/Label">
      <path id="width-7" data-name="width" d="M0-13H95v-4H0Z" transform="translate(0 30)" fill="#ffbebe"/>
      <g id="Right_Marker-7" data-name="Right Marker" transform="translate(91)">
        <path id="Path_3207-7" data-name="Path 3207" d="M281,0h4V-30h-4Z" transform="translate(-281 30)" fill="#ffbebe"/>
        <path id="Path_3209-7" data-name="Path 3209" d="M284,0h1V-30h-1Z" transform="translate(-281 30)" fill="#f99"/>
      </g>
      <g id="Left_Marker-7" data-name="Left Marker">
        <path id="Path_3217-7" data-name="Path 3217" d="M285,0h-4V-30h4Z" transform="translate(-281 30)" fill="#ffbebe"/>
        <path id="Path_3216-7" data-name="Path 3216" d="M285,0h-1V-30h1Z" transform="translate(-284 30)" fill="#ff7373"/>
      </g>
      <path id="col-1-12" data-name="col-1" d="M121-6h44V-24H121Z" transform="translate(-95.394 30)" fill="#ffbebe"/>
      <text id="col-1-13" data-name="col-1" transform="translate(27.167 8)" fill="#fff" font-size="12" font-family="HelveticaNeue-Bold, Helvetica Neue" font-weight="700"><tspan x="6.064" y="12">col-1</tspan></text>
    </g>
  </g>
  <g id="Column_1-6" data-name="Column 1" transform="translate(475)">
    <rect id="Left_Gutter-8" data-name="Left Gutter" width="16" height="100" fill="rgba(255,191,191,0.35)"/>
    <rect id="Right_Gutter-8" data-name="Right Gutter" width="16" height="100" transform="translate(79)" fill="rgba(255,191,191,0.24)"/>
    <g id="Grid_Ω_Label-8" data-name="Grid/Ω/Label">
      <path id="width-8" data-name="width" d="M0-13H95v-4H0Z" transform="translate(0 30)" fill="#ffbebe"/>
      <g id="Right_Marker-8" data-name="Right Marker" transform="translate(91)">
        <path id="Path_3207-8" data-name="Path 3207" d="M281,0h4V-30h-4Z" transform="translate(-281 30)" fill="#ffbebe"/>
        <path id="Path_3209-8" data-name="Path 3209" d="M284,0h1V-30h-1Z" transform="translate(-281 30)" fill="#f99"/>
      </g>
      <g id="Left_Marker-8" data-name="Left Marker">
        <path id="Path_3217-8" data-name="Path 3217" d="M285,0h-4V-30h4Z" transform="translate(-281 30)" fill="#ffbebe"/>
        <path id="Path_3216-8" data-name="Path 3216" d="M285,0h-1V-30h1Z" transform="translate(-284 30)" fill="#ff7373"/>
      </g>
      <path id="col-1-14" data-name="col-1" d="M121-6h44V-24H121Z" transform="translate(-95.394 30)" fill="#ffbebe"/>
      <text id="col-1-15" data-name="col-1" transform="translate(27.167 8)" fill="#fff" font-size="12" font-family="HelveticaNeue-Bold, Helvetica Neue" font-weight="700"><tspan x="6.064" y="12">col-1</tspan></text>
    </g>
  </g>
  <g id="Column_1-7" data-name="Column 1" transform="translate(855)">
    <rect id="Left_Gutter-9" data-name="Left Gutter" width="16" height="100" fill="rgba(255,191,191,0.35)"/>
    <rect id="Right_Gutter-9" data-name="Right Gutter" width="16" height="100" transform="translate(79)" fill="rgba(255,191,191,0.24)"/>
    <g id="Grid_Ω_Label-9" data-name="Grid/Ω/Label">
      <path id="width-9" data-name="width" d="M0-13H95v-4H0Z" transform="translate(0 30)" fill="#ffbebe"/>
      <g id="Right_Marker-9" data-name="Right Marker" transform="translate(91)">
        <path id="Path_3207-9" data-name="Path 3207" d="M281,0h4V-30h-4Z" transform="translate(-281 30)" fill="#ffbebe"/>
        <path id="Path_3209-9" data-name="Path 3209" d="M284,0h1V-30h-1Z" transform="translate(-281 30)" fill="#f99"/>
      </g>
      <g id="Left_Marker-9" data-name="Left Marker">
        <path id="Path_3217-9" data-name="Path 3217" d="M285,0h-4V-30h4Z" transform="translate(-281 30)" fill="#ffbebe"/>
        <path id="Path_3216-9" data-name="Path 3216" d="M285,0h-1V-30h1Z" transform="translate(-284 30)" fill="#ff7373"/>
      </g>
      <path id="col-1-16" data-name="col-1" d="M121-6h44V-24H121Z" transform="translate(-95.394 30)" fill="#ffbebe"/>
      <text id="col-1-17" data-name="col-1" transform="translate(27.167 8)" fill="#fff" font-size="12" font-family="HelveticaNeue-Bold, Helvetica Neue" font-weight="700"><tspan x="6.064" y="12">col-1</tspan></text>
    </g>
  </g>
  <g id="Column_4" data-name="Column 4" transform="translate(285)">
    <rect id="Left_Gutter-10" data-name="Left Gutter" width="16" height="100" fill="rgba(255,191,191,0.35)"/>
    <rect id="Right_Gutter-10" data-name="Right Gutter" width="16" height="100" transform="translate(79)" fill="rgba(255,191,191,0.24)"/>
    <g id="Grid_Ω_Label-10" data-name="Grid/Ω/Label">
      <path id="width-10" data-name="width" d="M0-13H95v-4H0Z" transform="translate(0 30)" fill="#ffbebe"/>
      <g id="Right_Marker-10" data-name="Right Marker" transform="translate(91)">
        <path id="Path_3207-10" data-name="Path 3207" d="M281,0h4V-30h-4Z" transform="translate(-281 30)" fill="#ffbebe"/>
        <path id="Path_3209-10" data-name="Path 3209" d="M284,0h1V-30h-1Z" transform="translate(-281 30)" fill="#f99"/>
      </g>
      <g id="Left_Marker-10" data-name="Left Marker">
        <path id="Path_3217-10" data-name="Path 3217" d="M285,0h-4V-30h4Z" transform="translate(-281 30)" fill="#ffbebe"/>
        <path id="Path_3216-10" data-name="Path 3216" d="M285,0h-1V-30h1Z" transform="translate(-284 30)" fill="#ff7373"/>
      </g>
      <path id="col-1-18" data-name="col-1" d="M121-6h44V-24H121Z" transform="translate(-95.394 30)" fill="#ffbebe"/>
      <text id="col-1-19" data-name="col-1" transform="translate(27.167 8)" fill="#fff" font-size="12" font-family="HelveticaNeue-Bold, Helvetica Neue" font-weight="700"><tspan x="6.064" y="12">col-1</tspan></text>
    </g>
  </g>
  <g id="Column_1-8" data-name="Column 1" transform="translate(665)">
    <rect id="Left_Gutter-11" data-name="Left Gutter" width="16" height="100" fill="rgba(255,191,191,0.35)"/>
    <rect id="Right_Gutter-11" data-name="Right Gutter" width="16" height="100" transform="translate(79)" fill="rgba(255,191,191,0.24)"/>
    <g id="Grid_Ω_Label-11" data-name="Grid/Ω/Label">
      <path id="width-11" data-name="width" d="M0-13H95v-4H0Z" transform="translate(0 30)" fill="#ffbebe"/>
      <g id="Right_Marker-11" data-name="Right Marker" transform="translate(91)">
        <path id="Path_3207-11" data-name="Path 3207" d="M281,0h4V-30h-4Z" transform="translate(-281 30)" fill="#ffbebe"/>
        <path id="Path_3209-11" data-name="Path 3209" d="M284,0h1V-30h-1Z" transform="translate(-281 30)" fill="#f99"/>
      </g>
      <g id="Left_Marker-11" data-name="Left Marker">
        <path id="Path_3217-11" data-name="Path 3217" d="M285,0h-4V-30h4Z" transform="translate(-281 30)" fill="#ffbebe"/>
        <path id="Path_3216-11" data-name="Path 3216" d="M285,0h-1V-30h1Z" transform="translate(-284 30)" fill="#ff7373"/>
      </g>
      <path id="col-1-20" data-name="col-1" d="M121-6h44V-24H121Z" transform="translate(-95.394 30)" fill="#ffbebe"/>
      <text id="col-1-21" data-name="col-1" transform="translate(27.167 8)" fill="#fff" font-size="12" font-family="HelveticaNeue-Bold, Helvetica Neue" font-weight="700"><tspan x="6.064" y="12">col-1</tspan></text>
    </g>
  </g>
  <g id="Column_1-9" data-name="Column 1" transform="translate(1045)">
    <rect id="Left_Gutter-12" data-name="Left Gutter" width="16" height="100" fill="rgba(255,191,191,0.35)"/>
    <rect id="Right_Gutter-12" data-name="Right Gutter" width="16" height="100" transform="translate(79)" fill="rgba(255,191,191,0.24)"/>
    <g id="Grid_Ω_Label-12" data-name="Grid/Ω/Label">
      <path id="width-12" data-name="width" d="M0-13H95v-4H0Z" transform="translate(0 30)" fill="#ffbebe"/>
      <g id="Right_Marker-12" data-name="Right Marker" transform="translate(91)">
        <path id="Path_3207-12" data-name="Path 3207" d="M281,0h4V-30h-4Z" transform="translate(-281 30)" fill="#ffbebe"/>
        <path id="Path_3209-12" data-name="Path 3209" d="M284,0h1V-30h-1Z" transform="translate(-281 30)" fill="#f99"/>
      </g>
      <g id="Left_Marker-12" data-name="Left Marker">
        <path id="Path_3217-12" data-name="Path 3217" d="M285,0h-4V-30h4Z" transform="translate(-281 30)" fill="#ffbebe"/>
        <path id="Path_3216-12" data-name="Path 3216" d="M285,0h-1V-30h1Z" transform="translate(-284 30)" fill="#ff7373"/>
      </g>
      <path id="col-1-22" data-name="col-1" d="M121-6h44V-24H121Z" transform="translate(-95.394 30)" fill="#ffbebe"/>
      <text id="col-1-23" data-name="col-1" transform="translate(27.167 8)" fill="#fff" font-size="12" font-family="HelveticaNeue-Bold, Helvetica Neue" font-weight="700"><tspan x="6.064" y="12">col-1</tspan></text>
    </g>
  </g>
</svg>
