<svg id="Collapse_Default" data-name="Collapse/Default" xmlns="http://www.w3.org/2000/svg" width="599" height="144" viewBox="0 0 599 144">
  <g id="Collapse_Accordian" data-name="Collapse/Accordian" transform="translate(0 96)">
    <g id="base" fill="#f7f7f7" stroke="#dfdfdf" stroke-width="1">
      <path d="M0,0H599a0,0,0,0,1,0,0V44a4,4,0,0,1-4,4H4a4,4,0,0,1-4-4V0A0,0,0,0,1,0,0Z" stroke="none"/>
      <path d="M1,.5H598a.5.5,0,0,1,.5.5V44a3.5,3.5,0,0,1-3.5,3.5H4A3.5,3.5,0,0,1,.5,44V1A.5.5,0,0,1,1,.5Z" fill="none"/>
    </g>
    <text id="Collapsible_Group_Item_1" data-name="Collapsible Group Item #1" transform="translate(21 30)" fill="#007aff" font-size="16" font-family="HelveticaNeue, Helvetica Neue"><tspan x="0" y="0">Collapsible Group Item #1</tspan></text>
  </g>
  <g id="Collapse_Accordian-2" data-name="Collapse/Accordian" transform="translate(0 48)">
    <g id="base-2" data-name="base" fill="#f7f7f7" stroke="#dfdfdf" stroke-width="1">
      <rect width="599" height="48" stroke="none"/>
      <rect x="0.5" y="0.5" width="598" height="47" fill="none"/>
    </g>
    <text id="Collapsible_Group_Item_1-2" data-name="Collapsible Group Item #1" transform="translate(21 30)" fill="#007aff" font-size="16" font-family="HelveticaNeue, Helvetica Neue"><tspan x="0" y="0">Collapsible Group Item #1</tspan></text>
  </g>
  <g id="Collapse_Accordian-3" data-name="Collapse/Accordian">
    <g id="base-3" data-name="base" fill="#f7f7f7" stroke="#dfdfdf" stroke-width="1">
      <path d="M4,0H595a4,4,0,0,1,4,4V48a0,0,0,0,1,0,0H0a0,0,0,0,1,0,0V4A4,4,0,0,1,4,0Z" stroke="none"/>
      <path d="M4,.5H595A3.5,3.5,0,0,1,598.5,4V47a.5.5,0,0,1-.5.5H1A.5.5,0,0,1,.5,47V4A3.5,3.5,0,0,1,4,.5Z" fill="none"/>
    </g>
    <text id="Collapsible_Group_Item_1-3" data-name="Collapsible Group Item #1" transform="translate(21 30)" fill="#007aff" font-size="16" font-family="HelveticaNeue, Helvetica Neue"><tspan x="0" y="0">Collapsible Group Item #1</tspan></text>
  </g>
</svg>
