<svg id="Dropdown_Button_Right_Large" data-name="Dropdown/Button/Right/Large" xmlns="http://www.w3.org/2000/svg" width="174" height="48" viewBox="0 0 174 48">
  <g id="Primary_007BFF" data-name="Primary / #007BFF" fill="#fff" stroke="#6c757d" stroke-width="1">
    <path d="M0,0H169a5,5,0,0,1,5,5V43a5,5,0,0,1-5,5H0a0,0,0,0,1,0,0V0A0,0,0,0,1,0,0Z" stroke="none"/>
    <path d="M1,.5H169A4.5,4.5,0,0,1,173.5,5V43a4.5,4.5,0,0,1-4.5,4.5H1A.5.5,0,0,1,.5,47V1A.5.5,0,0,1,1,.5Z" fill="none"/>
  </g>
  <g id="icon_dropdown_arrow_large" data-name="icon/dropdown arrow/large" transform="translate(142 17)">
    <rect id="Dropdown_Button_Ω_Carot_Down_background" data-name="Dropdown/Button/Ω/Carot/Down background" width="16" height="16" fill="none"/>
    <path id="Mask" d="M0,0H16L8,8Z" transform="translate(0 4)" fill="#6c757d"/>
  </g>
  <text id="Large_Button" data-name="Large Button" transform="translate(16 31)" fill="#6c757d" font-size="20" font-family="HelveticaNeue, Helvetica Neue"><tspan x="0" y="0">Large Button</tspan></text>
</svg>
