<svg id="Popover_Full" data-name="Popover/Full" xmlns="http://www.w3.org/2000/svg" width="260" height="110" viewBox="0 0 260 110">
  <g id="Combined_Shape" data-name="Combined Shape" fill="#fff" stroke-miterlimit="10">
    <path d="M124.323,104.323H4a4,4,0,0,1-4-4V4A4,4,0,0,1,4,0H256a4,4,0,0,1,4,4v96.323a4,4,0,0,1-4,4H135.677L130,110Z" stroke="none"/>
    <path d="M 129.9996490478516 108.5855407714844 L 134.9696960449219 103.6155090332031 L 135.2625885009766 103.3226165771484 L 135.6767883300781 103.3226165771484 L 255.9996185302734 103.3226165771484 C 257.6540832519531 103.3226165771484 259.0000915527344 101.9770050048828 259.0000915527344 100.3230056762695 L 259.0000915527344 3.99961519241333 C 259.0000915527344 2.345615148544312 257.6540832519531 1.0000079870224 255.9996185302734 1.0000079870224 L 3.999617099761963 1.0000079870224 C 2.345617294311523 1.0000079870224 1.000010013580322 2.345615148544312 1.000010013580322 3.99961519241333 L 1.000010013580322 100.3230056762695 C 1.000010013580322 101.9770050048828 2.345617294311523 103.3226165771484 3.999617099761963 103.3226165771484 L 124.3230438232422 103.3226165771484 L 124.7372970581055 103.3226165771484 L 125.0301895141602 103.6155471801758 L 129.9996490478516 108.5855407714844 M 129.9996185302734 109.9997940063477 L 124.3230438232422 104.3226165771484 L 3.999617099761963 104.3226165771484 C 1.791010022163391 104.3226165771484 1.006208185572177e-05 102.5316162109375 1.006208185572177e-05 100.3230056762695 L 1.006208185572177e-05 3.99961519241333 C 1.006208185572177e-05 1.791007995605469 1.791010022163391 7.960727998579387e-06 3.999617099761963 7.960727998579387e-06 L 255.9996185302734 7.960727998579387e-06 C 258.2091064453125 7.960727998579387e-06 260.0000915527344 1.791007995605469 260.0000915527344 3.99961519241333 L 260.0000915527344 100.3230056762695 C 260.0000915527344 102.5316162109375 258.2091064453125 104.3226165771484 255.9996185302734 104.3226165771484 L 135.6767883300781 104.3226165771484 L 129.9996185302734 109.9997940063477 Z" stroke="none" fill="rgba(0,0,0,0.2)"/>
  </g>
  <g id="Group" transform="translate(1 1)">
    <path id="Line" d="M0,1V0H258V1Z" transform="translate(0 36)" fill="#ebebeb"/>
    <path id="Rectangle_3" data-name="Rectangle 3" d="M3,0H255a3,3,0,0,1,3,3V36a0,0,0,0,1,0,0H0a0,0,0,0,1,0,0V3A3,3,0,0,1,3,0Z" fill="#f7f7f7"/>
  </g>
  <text id="Body" transform="translate(12 49)" fill="#212529" font-size="14" font-family="HelveticaNeue, Helvetica Neue"><tspan x="0" y="13">And here&apos;s some amazing content. </tspan><tspan x="0" y="34">It&apos;s very engaging. Right?</tspan></text>
  <text id="Title" transform="translate(12 9)" fill="#212529" font-size="16" font-family="HelveticaNeue-Medium, Helvetica Neue" font-weight="500"><tspan x="0" y="16">Popover title</tspan></text>
</svg>
