<svg id="InputGroup_Select_Right_Small" data-name="InputGroup/Select/Right/Small" xmlns="http://www.w3.org/2000/svg" width="138" height="31" viewBox="0 0 138 31">
  <g id="InputGroup_Right_Placeholder_Small" data-name="InputGroup/Right/Placeholder/Small">
    <g id="InputGroup_Right_Placeholder_Small-2" data-name="InputGroup/Right/Placeholder/Small" fill="#fff" stroke="#ced4da" stroke-width="1">
      <path d="M0,0H134a4,4,0,0,1,4,4V27a4,4,0,0,1-4,4H0a0,0,0,0,1,0,0V0A0,0,0,0,1,0,0Z" stroke="none"/>
      <path d="M1,.5H134A3.5,3.5,0,0,1,137.5,4V27a3.5,3.5,0,0,1-3.5,3.5H1A.5.5,0,0,1,.5,30V1A.5.5,0,0,1,1,.5Z" fill="none"/>
    </g>
  </g>
  <text id="Choose" transform="translate(10 20)" fill="#343a40" font-size="14" font-family="HelveticaNeue, Helvetica Neue"><tspan x="0" y="0">Choose</tspan></text>
  <g id="icon_double_caret" data-name="icon/double caret" transform="translate(115 8)">
    <rect id="base" width="15" height="15" fill="none"/>
    <path id="select" d="M3886.877,524.493l4.389,4.371,4.223-4.371" transform="translate(-3883.877 -519.493)" fill="none" stroke="#343a40" stroke-linecap="round" stroke-linejoin="round" stroke-width="1"/>
  </g>
</svg>
